<?xml version="1.0" encoding="utf-8"?>
<!-- Generator: Adobe Illustrator 27.5.0, SVG Export Plug-In . SVG Version: 6.00 Build 0)  -->
<svg version="1.1" xmlns="http://www.w3.org/2000/svg" xmlns:xlink="http://www.w3.org/1999/xlink" x="0px" y="0px"
	 viewBox="0 0 500 500" style="enable-background:new 0 0 500 500;" xml:space="preserve">
<g id="BACKGROUND">
	<rect id="XMLID_6_" style="fill:#FFFFFF;" width="500" height="500"/>
</g>
<g id="OBJECTS">
	<path style="fill:#C7E1ED;" d="M336.571,79.866c-0.05-0.351-0.386-0.541-0.731-0.577c-0.34-0.562-0.767-1.096-1.253-1.569
		c-2.168-2.114-5.065-3.258-8.192-4.183c-3.368-0.996-6.717-0.245-10.066-1.059c-1.441-0.35-2.672-1.098-3.871-1.83
		c-2.591-1.582-5.22-3.174-8.204-4.215c-2.984-1.041-6.403-1.495-9.51-0.722c-4.178,1.039-7.084,4.047-10.839,5.85
		c-1.593,0.765-3.313,1.296-5.1,1.655c-0.377-0.001-0.749,0.011-1.128,0.002c-6.416-0.144-12.978-1.53-19.341-0.307
		c-4.05,0.778-8.009,2.674-9.688,5.874c-1.609,3.065-0.953,6.846,2.491,8.898c3.511,2.092,8.185,1.505,12.261,1.778
		c6.825,0.457,9.53,4.585,14.575,7.518c9.277,5.394,21.4-1.508,29.634-5.335c3.729-1.734,7.243-3.005,11.601-3.262
		c3.025-0.178,6.086-0.012,9.065-0.567c2.986-0.556,5.654-1.811,7.135-3.685c0.395-0.388,0.716-0.817,0.918-1.295
		c0.186-0.439,0.26-0.891,0.245-1.343C336.646,80.976,336.652,80.435,336.571,79.866z"/>
	<path style="fill:#C7E1ED;" d="M371.311,110.932c-1.188,1.677-3.974,1.928-6.365,2.217c-0.793,0.239-1.598,0.4-2.333,0.469
		c-3.383,1.07-4.696,3.557-7.38,5.424c-3.598,2.503-8.539,3.812-13.447,3.405c-0.823,0.036-1.65,0.013-2.469-0.089
		c-3.338-0.413-5.965-1.916-8.59-3.469c-1.292-0.649-2.558-1.355-3.752-2.101c-0.429-0.213-0.863-0.418-1.311-0.606
		c-6.066-2.55-13.669-2.356-20.514-3.667c-1.558-0.298-3.242-0.772-3.907-1.789c-2.02-3.086,5.555-6.109,8.937-6.616
		c3.619-0.542,8,0.43,10.711-1.311c2.681-1.722,1.785-5.002,4.246-6.873c2.445-1.859,6.628-1.363,9.703-0.693
		c1.437,0.313,3.258,0.567,4.266,1.373c1.283,1.025,2.169,2.273,3.822,3.062c2.47,1.18,5.762,0.972,8.669,1.494
		c1.241,0.223,2.526,0.649,3.071,1.449c0.253,0.371,0.32,0.789,0.518,1.176c0.561,1.096,2.133,1.828,3.769,2.107
		c3.122,0.534,6.317-0.3,9.319,0.728C370.58,107.414,372.602,109.109,371.311,110.932z"/>
	<g>
		<path style="opacity:0.13;fill:#110809;" d="M374.607,340.863c-3.125,0.876-8.136,3.232-4.607,6.526
			c2.201,2.055,5.841,2.863,8.732,3.27c3.919,0.553,7.89,0.598,11.848,0.624c14.118,0.089,28.237-0.069,42.349-0.475
			c7.22-0.208,14.438-0.481,21.654-0.819c4.655-0.218,9.447,0.444,14.025-0.683c3.879-0.955,7.703-4.698,3.574-8.487
			c-1.592-1.461-3.822-1.953-5.948-2.342c-14.334-2.628-28.96-3.131-43.525-3.627c-3.613-0.123-7.229-0.246-10.843-0.153
			c-12.383,0.319-24.545,3.165-36.605,5.997C375.056,340.742,374.837,340.798,374.607,340.863z"/>
		<path style="fill:#D19886;" d="M414.768,230.447l5.471-1.824c0,0,5.471-14.59,5.471-15.502"/>
		<path style="fill:#D19886;" d="M418.416,213.121"/>
		<g>
			<path style="fill:#D19886;" d="M418.416,213.121c0,0.912-5.471,18.237-5.471,18.237l7.295,2.736l5.471-20.061L418.416,213.121z"
				/>
			<g id="XMLID_400_">
				<path style="fill:#6498B0;" d="M426.733,178.446c-4.732,13.241-8.492,25.705-10.746,39.706c2.204,1.683,5.097,2.234,7.229,3.6
					c4.718-10.475,9.46-21.015,12.644-32.208c0.157-0.553,0.313-1.133,0.241-1.696c-0.061-0.476-0.279-0.89-0.492-1.289
					c-2.882-5.397-5.763-10.794-8.645-16.191C427.234,173.343,427.743,175.621,426.733,178.446z"/>
			</g>
			<path style="fill:#110809;" d="M464.905,345.246c-0.5-0.374-1.146-0.43-1.778-0.466c-0.961-7.37-5.909-14.951-11.58-19.721
				c0.165-12.498-0.132-25.032-0.133-37.505c-0.001-16.826,0.68-33.821-0.188-50.625c-0.048-0.939-1.412-0.941-1.46,0
				c-0.868,16.805-0.187,33.799-0.188,50.625c-0.001,12.303-0.287,24.667-0.137,36.996c-3.432,2.356-6.5,5.291-9.329,8.345
				c-3.693,3.475-7.252,7.857-9.394,12.503c-0.421,0.013-0.841,0.038-1.259,0.114c-0.782,0.141-0.689,1.294,0,1.491
				c0.72,0.206,1.486,0.223,2.231,0.223c0.722,0.001,1.501,0.074,2.14-0.3c0.469-0.275,0.575-1.14,0-1.384
				c-0.451-0.192-0.895-0.21-1.353-0.196c0.138-0.223,0.276-0.446,0.414-0.667c0.911-0.985,1.652-2.052,2.485-3.199
				c1.355-1.868,2.792-3.676,4.303-5.42c3.029-3.497,6.432-6.524,9.789-9.665c0.063,3.933,0.169,7.863,0.353,11.785
				c0.041,0.87,1.313,0.872,1.354,0c0.169-3.599,0.267-7.205,0.332-10.814c4.685,4.962,8.09,10.581,9.793,17.275
				c-0.528-0.036-1.057-0.06-1.588-0.04c-0.92,0.033-1.156,1.39-0.221,1.637c0.917,0.242,1.854,0.364,2.793,0.484
				c0.924,0.118,1.753,0.353,2.625-0.035C465.54,346.402,465.346,345.574,464.905,345.246z"/>
			<g id="XMLID_18_">
				<g id="XMLID_19_">
					<g id="XMLID_20_">
						<g id="XMLID_21_">
							<path style="fill:#D19886;" d="M444.46,148.497c-1.54-3.692-1.672-7.456-1.887-11.273c-1.546-0.483-4.13,0.275-6.112,0.615
								c-1.196,0.206-5.032,0.302-5.377,1.587c-0.31,1.154,2.581,5.524,2.99,6.893c0.814,2.724,1.064,5.691,0.189,8.396
								c-0.655,2.026-1.93,3.838-3.578,5.186c-0.914,0.748-1.984,1.412-2.473,2.487c-1.036,2.28,1.858,3.509,3.516,3.989
								c3.883,1.125,6.392-4.959,10.317-5.926c2.696-0.664,7.906-0.736,6.67-4.853C447.084,153.355,445.527,151.056,444.46,148.497z
								"/>
						</g>
					</g>
				</g>
			</g>
			<g id="XMLID_13_">
				<g id="XMLID_14_">
					<g id="XMLID_15_">
						<g id="XMLID_16_">
							<path style="fill:#D19886;" d="M436.863,142.875c2.841-0.434,2.268,2.536,4.298,0.501c0.468-0.469,2.671-4.361,2.541-5.01
								c-0.804-4.012-1.024-9.287-2.893-11.125c-2.199-2.162-6.272-2.487-9.143-2.74c-1.993-0.176-4.243,0.213-5.457,1.803
								c-0.972,1.273-1.048,2.994-1.083,4.595c-0.073,3.276-0.673,6.889,1.585,9.568c1.816,2.155,4.7,2.829,7.413,2.682
								c1.13-0.061,1.493-0.359,2.624-0.387c0.151-0.004,0.313-0.001,0.436,0.086C437.306,142.936,436.982,142.781,436.863,142.875z
								"/>
						</g>
					</g>
				</g>
			</g>
			<g id="XMLID_172_">
				<g id="XMLID_179_">
					<path style="fill:#E0AC9B;" d="M418.791,313.878c-0.147,0.616-0.273,1.242-0.44,1.848c-0.504,1.829-1.253,3.056-1.407,5.003
						c-0.306,3.891-0.613,7.782-0.919,11.673c-0.26,3.3,1.431,7.445,4.771,8.06c4.527,0.833,6.134-4.237,6.83-7.91
						c0.818-4.314,1.636-8.629,2.454-12.943c0.437-2.306,1.207-5.424,0.423-7.737c-0.68-2.006-2.503-2.481-4.416-2.681
						c-2.102-0.22-4.479-0.06-5.927,1.596C419.392,311.667,419.058,312.757,418.791,313.878z"/>
				</g>
			</g>
			<g id="XMLID_62_">
				<g id="XMLID_171_">
					<path style="fill:#110809;" d="M427.027,335.556c0-0.061-0.001-0.126-0.016-0.184c-0.008-0.029-0.019-0.057-0.036-0.082
						c-0.189-0.281-2.352,0.321-2.757,0.391c-0.971,0.167-1.949,0.332-2.934,0.35c-1.952,0.035-3.738-0.67-4.5-2.752
						c-0.233-0.636-0.388-1.347-1.009-1.249c-2.544,2.943-5.787,4.888-9.343,6.199c-2.185,0.805-4.464,1.218-6.657,1.975
						c-1.174,0.405-3.385,1.458-3.236,3.093c0.048,0.523,0.303,1.003,0.632,1.39c2.141,2.519,5.775,2.49,8.689,2.475
						c2.011-0.01,4.028-0.02,6.025-0.283c1.818-0.239,3.607-0.686,5.372-1.211c0.591-0.176,1.206-0.362,1.808-0.239
						c0.76,0.155,1.188,0.795,1.841,1.144c0.545,0.292,1.126,0.23,1.71,0.196c0.955-0.055,1.908-0.157,2.855-0.305
						c0.09-0.014,0.183-0.03,0.26-0.081c0.08-0.052,0.136-0.138,0.188-0.221c0.936-1.511,1.241-3.34,1.424-5.113
						C427.53,339.23,427.027,337.397,427.027,335.556z"/>
				</g>
			</g>
			<g id="XMLID_166_">
				<path style="fill:#13285E;" d="M444.918,212.352c-6.517-1.773-14.469-2.583-19.198,2.008c-0.178,0.173-0.352,0.353-0.52,0.541
					c-5.817,6.497-9.123,14.727-10.686,22.933c-5.352,28.096,1.376,56.868,0.318,85.154c5.76,0.821,11.534,1.57,17.215,2.736
					c1.002-1.654,5.005-31.416,4.818-43.692c-0.1-6.546-1.733-14.173-0.023-20.494c1.701-6.292,4.329-12.794,7.03-18.806
					C446.792,236.229,457.985,215.908,444.918,212.352z"/>
			</g>
			<path style="fill:#9B9EA1;" d="M470.098,236.874c-1.128-0.789-2.802-0.906-4.284-0.954c-0.043-0.004-0.085-0.01-0.127-0.013
				c-0.475-0.03-0.956-0.039-1.44-0.039c-2.89-0.12-5.785-0.115-8.677-0.036c-5.363,0.146-10.774,0.393-16.114,0.922
				c-0.887,0.088-4.998,0.344-5.844,1.634c-0.268,0.152-0.482,0.354-0.605,0.627c-0.496,1.101,0.553,1.875,1.47,2.081
				c2.248,0.505,4.962,0.214,7.261,0.225c2.818,0.014,5.637-0.036,8.454-0.121c5.444-0.164,10.985-0.208,16.395-0.874
				c1.17-0.144,3.114-0.097,3.976-1.056C471.289,238.46,470.919,237.448,470.098,236.874z"/>
			<path style="fill:#C9CDD1;" d="M470.098,235.05c-1.128-0.789-2.802-0.906-4.284-0.954c-0.043-0.004-0.085-0.01-0.127-0.013
				c-0.475-0.03-0.956-0.039-1.44-0.039c-2.89-0.12-5.785-0.115-8.677-0.036c-5.363,0.146-10.774,0.393-16.114,0.922
				c-0.887,0.088-4.998,0.344-5.844,1.634c-0.268,0.152-0.482,0.354-0.605,0.627c-0.496,1.101,0.553,1.875,1.47,2.081
				c2.248,0.505,4.962,0.214,7.261,0.225c2.818,0.014,5.637-0.037,8.454-0.121c5.444-0.164,10.985-0.208,16.395-0.874
				c1.17-0.144,3.114-0.097,3.976-1.056C471.289,236.636,470.919,235.624,470.098,235.05z"/>
			<path style="fill:#2B417A;" d="M452.619,213.855c-0.714-3.792-2.073-7.245-4.587-7.279c-6.066-0.082-12.129-0.344-18.191-0.555
				c-0.697-0.024-2.409-0.373-3.035-0.075c-1.17,0.557-1.053,2.529-1.415,3.684c-1.052,3.361-2.951,6.47-5.244,9.245
				c-4.431,5.363-10.21,9.353-14.481,14.832c-4.187,5.371-7.822,11.16-10.186,17.42c-1.203,3.187-2.055,6.497-2.409,9.854
				c0.956,10.885,5.05,21.297,9.927,31.225c2.609,5.311,5.179,10.836,8.409,15.855c1.16,1.803,2.42,3.551,3.644,5.316
				c-0.137-7.773-0.782-20.658-0.852-24.392c-0.134-7.181-0.259-14.442,1.43-21.455c2.18-9.049,8.61-15.665,16.168-21.427
				c4.923-3.692,10.346-6.688,15.445-10.02c4.223-2.759,5.994-8.529,6.103-13.322C453.385,221.095,453.274,217.333,452.619,213.855z
				"/>
			<g id="XMLID_30_">
				<path style="fill:#D19886;" d="M404.671,145.046c0.253-1.799,0.599-3.579,1.039-5.342c0.271-1.084,1.946-0.625,1.675,0.462
					c-0.068,0.272-0.129,0.546-0.193,0.818c0.507,0.019,1.018,0.44,0.852,1.077c-0.044,0.168-0.094,0.334-0.142,0.501
					c0.328-0.046,0.688,0.092,0.889,0.359c-0.236,0.907-0.666,1.76-0.397,2.722c0.261,0.936,1.748,1.888,1.673,2.346
					c-0.002,0.012,0.021,0.009,0.032,0.014c0.044,0.036,0.087,0.072,0.131,0.108c0.067,0.054,0.154-0.002,0.159-0.064
					c0.05-0.011,0.098-0.032,0.14-0.063c1.16,1.44,2.909,1.992,2.722,6.34c-0.047,1.084,0.076,8.492-0.364,8.476
					c-1.438-0.053-4.023-0.66-5.449-0.839c-0.512-0.064-1.139,0.955-1.677,0.676c-0.553-0.287-0.029-1.669,0.089-2.086
					c0.624-2.208,1.148-4.444,1.568-6.699c0.103-0.554,0.172-1.166,0.094-1.729c-0.09-0.649-0.573-1.016-0.738-1.569
					c-0.073-0.093-0.145-0.185-0.211-0.278c-0.6-0.831-1.341-1.94-1.699-2.909c-0.232-0.628-0.146-1.01,0.001-1.61
					C404.715,145.574,404.631,145.332,404.671,145.046z"/>
			</g>
			<g id="XMLID_61_">
				<path style="fill:#87B4C9;" d="M454.895,189.492c-0.408-7.065-1.127-14.112-2.157-21.114
					c-0.84-5.716-2.917-18.358-10.514-18.801c-4.959-0.289-8.802,5.202-10.926,8.967c-3.14,5.567-4.054,12.137-4.869,18.379
					c-0.378,2.892-5.807,36.751-4.367,37.111c10.159,1.889,24.344,6.202,34.651,5.471
					C457.071,211.374,455.365,197.616,454.895,189.492z"/>
			</g>
			<path style="fill:#87B4C9;" d="M443.499,157.022c-0.034-0.494-0.102-0.991-0.208-1.492c-0.205-0.963-0.467-1.942-1.043-2.741
				c-0.889-1.233-2.519-1.884-4.012-1.601c-1.246,0.236-2.301,1.038-3.271,1.853c-0.226,0.19-0.45,0.382-0.672,0.575
				c-3.686,3.214-6.463,7.101-9.659,10.753c-3.252,3.715-6.914,7.087-10.89,10.016c-0.371,0.273-0.748,0.547-1.127,0.821
				c0.518-0.376,0.061-2.755,0.169-3.41c0.352-2.147,0.721-4.488,0.721-6.684c0.097-1.082,0.184-2.167,0.292-3.248
				c0.099-0.983,0.283-1.252-0.784-1.475c-0.616-0.129-1.251-0.184-1.879-0.218c-1.383-0.075-6.184-0.365-6.738,1.493
				c-0.475,1.595-0.95,3.19-1.396,4.793c-1.3,4.67-2.392,9.492-2.207,14.371c0.092,2.43,0.513,4.843,1.303,7.145
				c0.782,2.279,1.548,4.573,4.124,5.185c0.935,0.222,1.911,0.183,2.871,0.142c0.42-0.018,0.839-0.036,1.259-0.054
				c3.033-0.13,5.845-2.439,8.317-4.039c2.591-1.677,5.104-3.476,7.491-5.433c6.462-5.296,11.843-11.777,15.558-19.279
				C442.892,162.124,443.676,159.626,443.499,157.022z"/>
			<g id="XMLID_175_">
				<path style="fill:#110809;" d="M411.18,149.767L411.18,149.767c0.281-0.098,0.439-0.377,0.353-0.623l-5.745-16.463
					c-0.086-0.246-0.383-0.366-0.664-0.268l0,0c-0.281,0.098-0.439,0.377-0.353,0.623l5.745,16.463
					C410.601,149.745,410.899,149.865,411.18,149.767z"/>
			</g>
			<g id="XMLID_208_">
				<path style="fill:#D19886;" d="M409.293,147.684c0.231-0.507,0.452-0.264,0.643-0.008c0.02,0.165,0.074,0.338,0.24,0.406
					c0.154,0.063,0.323-0.003,0.446-0.102c0.332-0.269,0.606-0.818,0.626-1.244c0.007-0.008,0.017-0.018,0.024-0.026
					c-0.061-0.118-0.087-0.24-0.084-0.36c-0.045-0.033-0.098-0.07-0.162-0.113c-0.408-0.274-0.718-0.543-0.941-0.944l-0.368-1.054
					c-0.177-0.698,0.829-1.076,1.35-0.147c0.356,0.633,1.099,0.688,1.422,0.957c0.404,0.337,0.701,0.758,0.76,1.297
					c0.135,0.943,0.068,1.855,0.118,2.794c0.07,1.324,0.241,2.53,0.009,3.861c-0.058,0.333-0.144,0.686-0.396,0.91
					c-0.407,0.362-1.084,0.213-1.478-0.164c-0.314-0.3-0.5-0.707-0.679-1.102c-0.17-0.377-0.341-0.754-0.511-1.131
					c-0.334-0.738-0.79-1.577-0.987-2.357C408.957,148.863,409.084,148.143,409.293,147.684z"/>
			</g>
			<g id="XMLID_382_">
				<defs>
					<path id="SVGID_1_" d="M436.863,142.875c2.841-0.434,2.268,2.536,4.298,0.501c0.468-0.469,2.601-3.674,2.67-4.332
						c0.33-3.192-1.153-9.965-3.022-11.803c-1.753-1.724-5.292-1.963-7.732-1.66c-4.98,0.616-8.683,2.545-8.112,10.329
						c0.325,4.435,3.522,7.119,9.158,6.813c1.13-0.061,1.493,0.068,2.624,0.041c0.151-0.004,0.313-0.001,0.436,0.086
						C437.306,142.936,436.982,142.781,436.863,142.875z"/>
				</defs>
				<clipPath id="SVGID_00000095331805991976975760000014259060064792521624_">
					<use xlink:href="#SVGID_1_"  style="overflow:visible;"/>
				</clipPath>
				<g id="XMLID_377_" style="clip-path:url(#SVGID_00000095331805991976975760000014259060064792521624_);">
					<path style="fill:#13285E;" d="M424.616,137.75c1.244,0.79,2.809,0.625,3.901-0.344c0.373-0.331,0.852,0.275,0.482,0.605
						c-1.362,1.209-3.319,1.327-4.845,0.358C423.733,138.102,424.198,137.484,424.616,137.75z"/>
				</g>
			</g>
			<g id="XMLID_408_">
				<path style="fill:#E0AC9B;" d="M434.399,132.343c0.097-0.223,0.226-0.417,0.397-0.568c0.745,0.022,1.444,0.45,1.723,1.192
					c0.314,0.833,0.021,2.057-0.996,2.177c-0.477,0.056-0.982-0.075-1.38-0.344c-0.013-0.249-0.022-0.517-0.02-0.789
					C434.164,133.446,434.251,132.89,434.399,132.343z"/>
			</g>
			<path style="fill:#110809;" d="M434.692,137.18c0.29,0.865,0.691,1.7,1.288,2.485c1.27,1.667,3.336,2.855,5.416,2.595
				c1.064-0.133,2.054-0.625,2.937-1.234c1.988-1.369,3.555-3.423,4.078-5.78c0.523-2.357-0.092-4.998-1.8-6.703
				c3.251-0.68,6.022-3.228,7.05-6.386c1.028-3.158,0.309-6.807-1.775-9.393c-2.084-2.586-5.453-4.057-8.771-3.913
				c-2.339,0.102-4.695,1.016-6.26,2.757c-1.565,1.742-2.216,4.352-1.359,6.531c0.414,1.052,1.142,1.964,1.506,3.035
				c-0.161-0.466-2.517-0.127-2.876-0.1c-1.535,0.117-2.885,0.379-4.371,0.793c-1.865,0.466-3.84,0.03-5.499,1.026
				c-0.335,0.201-0.672,0.404-0.954,0.674c-0.665,0.636-0.956,1.637-0.736,2.53c0.22,0.893,0.942,1.645,1.826,1.9
				c1.026,0.296,2.263,0.217,3.328,0.339c1.226,0.14,2.44,0.386,3.623,0.738c0.47,0.14,0.945,0.302,1.334,0.601
				c0.866,0.664,0.946,2.192,1.119,3.185C434.049,134.308,434.222,135.779,434.692,137.18z"/>
			<path style="fill:#6498B0;" d="M436.392,174.07c-3.75,3.692-6.77,7.666-11.606,10.378c-0.683,0.383-0.059,1.341,0.636,0.964
				c4.8-2.603,8.85-6.539,11.909-10.7C437.7,174.212,436.848,173.621,436.392,174.07z"/>
		</g>
		<g id="XMLID_1670_">
			<path id="XMLID_1963_" style="fill:#87B4C9;" d="M427.817,99.063c-0.03-1.338,0.243-2.957-1.15-3.653
				c-1.532-0.764-3.801-0.508-5.43-0.494c-2.421,0.021-4.84,0.153-7.256,0.298c-2.024,0.121-4.463-0.094-6.419,0.419
				c-1.384,0.363-1.047,1.78-1.052,2.941c0,0.076,0.014,0.141,0.038,0.199c-0.859,0.119-1.653,0.351-2.254,0.789
				c-1.609,1.175-0.913,4.102-0.864,5.773c0.045,1.522,0.079,3.046,0.208,4.563c0.08,0.951,0.056,2.213,0.628,3.037
				c0.231,0.334,0.508,0.525,0.875,0.669c0.232,0.091,0.975,0.056,1.135,0.175c0.709,0.526-0.016,3.543-0.042,4.323
				c-0.012,0.363,0.301,0.52,0.58,0.472c0.177,0.14,0.429,0.17,0.626-0.046c0.822-0.896,1.673-1.759,2.574-2.575
				c0.996-0.901,2.484-2.578,3.87-2.711c2.267-0.217,4.641,0.94,6.909,0.478c1.073-0.218,1.561-0.872,1.811-1.694
				c1.226-0.097,3.377,0.131,4.176-0.948c0.845-1.142,0.709-3.679,0.821-5.024C427.796,103.729,427.869,101.395,427.817,99.063z
				 M420.739,112.724c-0.532,0.272-1.617,0.026-2.185-0.028c-1.979-0.189-4.566-1.021-6.324,0.17
				c-1.801,1.221-3.433,2.764-4.932,4.354c0.115-1.051,0.333-2.092,0.379-3.136c0.029-0.635-0.057-0.959-0.701-1.195
				c-0.231-0.084-0.466-0.03-0.7-0.106c-1.692-0.551-1.529-1.543-1.643-2.885c-0.111-1.314-0.15-2.632-0.19-3.95
				c-0.038-1.24-0.378-2.981-0.115-4.192c0.497-2.288,3.113-1.956,4.84-2.021c2.837-0.105,5.68,0.019,8.516,0.092
				c0.632,0.016,1.266,0.018,1.898,0.048c1.341,0.063,1.615,0.178,2.021,1.508c0.397,1.302,0.371,2.887,0.421,4.248
				c0.054,1.466,0.02,2.939-0.114,4.401C421.823,110.992,421.75,112.206,420.739,112.724z M426.739,104.15
				c-0.081,1.482-0.212,2.962-0.393,4.435c-0.163,1.322-0.079,2.076-1.559,2.232c-0.659,0.069-1.319,0.129-1.978,0.192
				c0.041-0.322,0.069-0.651,0.098-0.978c0.246-2.761,0.158-5.549-0.246-8.291c-0.293-1.985-0.671-2.779-2.761-2.853
				c-2.943-0.105-5.897-0.197-8.841-0.184c-0.986,0.004-2.296-0.089-3.564-0.019c0.007-0.034,0.011-0.07,0.011-0.109
				c0.003-0.829-0.258-1.544,0.498-2.001c0.483-0.292,1.918-0.117,2.495-0.152c1.491-0.091,2.981-0.185,4.472-0.27
				c3.094-0.177,6.247-0.403,9.344-0.193c1.016,0.069,1.983,0.041,2.439,1.198c0.255,0.647,0.073,1.846,0.081,2.543
				C426.85,101.183,426.82,102.668,426.739,104.15z"/>
			<path id="XMLID_1969_" style="fill:#87B4C9;" d="M419.697,102.937c-4.263-0.104-8.524-0.075-12.785,0.087
				c-0.639,0.024-0.642,1.021,0,0.996c4.261-0.162,8.522-0.191,12.785-0.087C420.339,103.948,420.338,102.952,419.697,102.937z"/>
			<path id="XMLID_1968_" style="fill:#87B4C9;" d="M419.088,105.288h-12.506c-0.641,0-0.642,0.996,0,0.996h12.506
				C419.729,106.284,419.73,105.288,419.088,105.288z"/>
			<path id="XMLID_1967_" style="fill:#87B4C9;" d="M419.088,107.557h-12.506c-0.641,0-0.642,0.996,0,0.996h12.506
				C419.729,108.553,419.73,107.557,419.088,107.557z"/>
		</g>
	</g>
	<g>
		<path style="opacity:0.13;fill:#110809;" d="M140.067,366.514c-6.061,0.158-12.111,0.368-18.118,0.432
			c-18.482,0.199-36.962,0.5-55.44,0.904c-15.756,0.344-32.006-2.098-46.46,6.065c-1.758,0.984-3.564,2.266-4.121,4.202
			c-0.616,2.141,0.559,4.487,2.323,5.848c1.764,1.362,4.003,1.928,6.194,2.338c8.278,1.55,16.772,1.336,25.191,1.117
			c43.978-1.147,87.973-2.295,131.86-5.35c3.446-0.24,6.973-0.512,10.122-1.931c1.737-0.783,3.466-2.138,3.676-4.032
			c0.34-3.065-3.236-4.935-6.214-5.74C173.09,366.045,156.537,366.085,140.067,366.514z"/>
		<path style="fill:#CF9F8F;" d="M161.172,368.445c0.124-0.228,0.245-0.457,0.363-0.683c0.305-0.588,0.593-1.257,0.41-1.893
			c-0.176-0.61-0.735-1.015-1.244-1.393c-1.394-1.036-2.677-2.223-3.818-3.534c-1.259-1.446-2.355-3.049-3.803-4.305
			c-2.993-2.598-8.252-2.778-10.803,0.576c-0.47,0.618-0.84,1.333-0.942,2.103c-0.245,1.856,1.062,3.523,2.3,4.927
			c1.6,1.814,3.223,3.61,4.869,5.383c1.481,1.596,2.937,3.285,4.604,4.703c0.351,0.298,0.699,0.583,1.041,0.871
			c0.487,0.411,3.83-2.545,4.233-2.917C159.524,371.229,160.415,369.837,161.172,368.445z"/>
		<g>
			<path style="fill:#110809;" d="M76.203,371.431c-0.23-0.561-0.619-1.014-1.088-1.369c-0.129-0.158-0.275-0.304-0.457-0.425
				c-0.263-0.175-0.557-0.285-0.861-0.345c-2.126-6.922-9.198-12.519-16.33-13.315c-0.026-4.337-0.08-8.673-0.138-13.006
				c-0.135-10.116,0.12-20.453-0.95-30.519c-0.107-1.006-1.561-1.051-1.6,0c-0.379,10.132,0.394,20.379,0.534,30.519
				c0.058,4.216,0.076,8.432,0.085,12.649c-8.18-0.002-16.19,6.081-18.007,14.108c-1.396,0.371-2.768,1.442-3.13,2.76
				c-0.46,1.678,0.623,3.474,2.292,3.892c0.782,0.196,1.589,0.07,2.281-0.276c1.375-0.459,2.522-1.635,2.603-3.139
				c0.076-1.405-0.743-2.715-2.012-3.188c2.626-7.154,7.757-11.643,15.915-12.547c0.021,0.009,0.04,0.019,0.063,0.027
				c0.007,4.125,0.007,8.249,0.029,12.374c-0.195,0.048-0.379,0.118-0.549,0.205c-0.661,0.283-1.239,0.768-1.556,1.404
				c-0.92,1.846,0.303,4.264,2.347,4.571c1.636,0.246,3.156-0.903,3.371-2.38c0.091-0.153,0.171-0.311,0.222-0.473
				c0.32-1.015-0.094-2.096-0.891-2.765c-0.251-0.21-0.584-0.374-0.952-0.487c0.06-3.984,0.067-7.971,0.051-11.958
				c3.28,0.813,6.319,1.958,8.984,4.264c2.462,2.13,3.856,4.62,5.076,7.378c-0.274,0.078-0.54,0.182-0.788,0.323
				c-1.812,1.03-1.345,3.262-0.078,4.522c0.695,0.843,1.814,1.374,2.909,1.297C75.65,375.386,77.005,373.39,76.203,371.431z"/>
			<path id="XMLID_690_" style="fill:#69418C;" d="M64.951,303.799c-7.475-0.897-15.17-0.663-22.524,0.726
				c-3.883,0.734-9.966,2.509-10.196,6.249c-0.372,6.021,9.43,7.965,15.373,8.343c10.09,0.641,21.487,1.15,30.867-2.393
				c2.3-0.869,4.653-2.208,5.082-4.188c0.336-1.55-0.65-3.138-2.111-4.21c-1.461-1.072-3.342-1.71-5.216-2.251
				C72.577,305.019,68.793,304.259,64.951,303.799z"/>
		</g>
		<path style="fill:#94A5B5;" d="M181.584,360.456c-0.138-0.025-0.283-0.042-0.436-0.051c-1.029-0.06-2.035,0.283-3.001,0.642
			c-3.683,1.37-7.321,3.068-11.232,3.448c-1.877,0.182-3.934-0.27-5.649-1.156c-0.071,0.044-0.126,0.107-0.194,0.155
			c-0.018,0.063-0.035,0.125-0.052,0.188c-0.29,2.056-1.086,3.938-2.474,5.599c-1.41,1.688-3.177,2.622-4.943,3.603
			c-0.914,0.753-1.493,1.615-0.65,2.857c0.834,1.23,1.673,2.466,2.705,3.535c1.124,1.165,2.612,2.16,4.228,2.061
			c0.907-0.056,1.756-0.451,2.565-0.866c2.528-1.297,4.915-2.848,7.297-4.396c2.341-1.521,4.682-3.042,7.023-4.564
			c1.554-1.01,3.12-2.029,4.441-3.329c1.101-1.084,2.704-2.952,2.654-4.609C183.824,362.173,183.04,360.719,181.584,360.456z"/>
		<path style="fill:#E0AC9B;" d="M162.389,351.572c-0.558-0.675-1.069-1.397-1.594-2.099c-0.816-1.091-1.681-2.146-2.59-3.16
			c-0.456-0.509-0.937-1.018-1.549-1.322c-0.535-0.265-1.138-0.356-1.729-0.444c-0.914-0.135-1.841-0.271-2.758-0.157
			c-1.552,0.192-2.992,1.137-3.787,2.484c-2.022,3.429,1.658,7.615,3.595,10.337c2.372,3.334,5.145,6.383,8.244,9.055
			c0.941,0.811,2.816,0.642,3.718-0.251c1.931-1.91,3.553-4.134,4.781-6.557c0.633-1.249,1.497-3.547,0.156-4.677
			c-0.654-0.551-1.389-0.241-2.2-0.367c-0.972-0.151-1.896-0.613-2.665-1.217C163.407,352.723,162.88,352.165,162.389,351.572z"/>
		<path style="fill:#C9CDD1;" d="M187.722,350.528c-0.138-0.025-0.283-0.042-0.436-0.051c-1.029-0.06-2.035,0.283-3.001,0.642
			c-3.683,1.37-7.321,3.068-11.232,3.448c-1.877,0.182-3.934-0.27-5.649-1.156c-0.071,0.044-0.126,0.107-0.194,0.156
			c-0.018,0.063-0.035,0.125-0.052,0.188c-0.29,2.056-1.086,3.938-2.474,5.599c-1.41,1.688-3.177,2.622-4.943,3.603
			c-0.915,0.753-1.493,1.615-0.65,2.857c0.834,1.23,1.673,2.466,2.705,3.535c0.979,1.015,2.354,1.963,3.76,2.263
			c1.507,0.322,2.803-0.659,4.019-1.477c4.386-2.948,8.349-6.586,13.118-8.864c1.773-0.848,3.669-1.514,5.194-2.755
			C189.94,356.848,191.673,351.243,187.722,350.528z"/>
		<g>
			<path style="fill:#E6AC8E;" d="M79.407,275.641l0.003-0.001c-0.014-0.05-0.023-0.103-0.036-0.153L79.407,275.641z"/>
			<polygon style="fill:#E6AC8E;" points="70.805,234.746 70.973,235.542 70.973,235.543 			"/>
			<path style="fill:#E6AC8E;" d="M79.27,275.036c0.028,0.154,0.067,0.302,0.105,0.451l-0.122-0.579
				C79.26,274.951,79.262,274.994,79.27,275.036z"/>
			<path style="fill:#E6AC8E;" d="M91.315,273.27l-11.905,2.371c0.852,2.97,3.834,4.87,6.94,4.309
				C89.529,279.375,91.675,276.432,91.315,273.27z"/>
		</g>
		<path style="fill:#6498B0;" d="M157.089,353.52c1.491-1.234,3.005-2.438,4.557-3.589c-10.955-19.788-29.292-38.439-34.342-43.102
			c-7.452-6.88-26.341-11.902-32.059-13.605c-7.889-2.35-19.352-6.331-27.614-3.317c-5.357,1.954-8.802,7.469-8.638,13.377
			c0.16,5.732,4.07,11.686,10.252,11.874c0.137,0.004,0.271-0.01,0.407-0.006c7.26,0.227,14.628,0.279,21.89,0.119
			c6.241-0.137,11.388,1.614,16.928,4.73c4.092,2.302,7.841,5.159,11.576,8.006c8.55,6.518,23.144,20.329,33.07,28.51
			C154.417,355.494,155.75,354.503,157.089,353.52z"/>
		<path style="fill:#E0AC9B;" d="M99.973,287.128c-1.014-1.04-2.028-2.079-3.042-3.119c-1.35-1.384-2.704-2.772-4.226-3.965
			c-0.376-0.295-0.778-0.584-1.246-0.68c-0.853-0.174-0.94,0.289-1.335,0.803c-0.473,0.615-1.205,0.999-1.777,1.517
			c-0.33,0.298-2.756,2.834-3.048,2.718c3.242,2.349,6.483,4.697,9.725,7.046c2.167,1.57,4.958-0.256,6.478-2.035
			c0.108-0.127,0.219-0.282,0.185-0.445c-0.022-0.104-0.099-0.185-0.173-0.261C101,288.181,100.487,287.654,99.973,287.128z"/>
		<path style="fill:#9B9EA1;" d="M84.305,285.81c1.004,1.122,2.036,2.221,3.037,3.339c1.081,1.208,2.242,2.468,3.792,2.941
			c1.864,0.568,3.937-0.163,5.416-1.431c1.393-1.195,2.399-2.964,2.278-4.795c-0.115-1.752-1.201-3.267-2.201-4.71
			c-4.214-6.084-7.727-12.836-9.976-19.905c-3.896-12.242-3.661-28.065-15.176-36.244c-1.602-1.138-4.006-1.004-4.736,1.101
			c-0.776,2.238,0.103,6.002,0.343,8.333c0.543,5.281,1.886,10.275,2.75,15.453c0.961,5.756,1.989,11.523,3.752,17.097
			c1.381,4.368,3.247,8.644,5.757,12.463c0.527,0,2.984,4.049,3.471,4.635C83.296,284.668,83.797,285.242,84.305,285.81z"/>
		<path style="fill:#C9CDD1;" d="M73.632,246.226c0.117-0.02,0.248-0.042,0.409-0.069L73.632,246.226z"/>
		<path style="fill:#C9CDD1;" d="M73.234,246.293c0,0,0.057-0.01,0.14-0.024L73.234,246.293z"/>
		<path style="fill:#87B4C9;" d="M146.007,370.955c0.74-0.661,11.428-8.892,12.469-9.797c-1.456-1.717-24.002-34.762-33.844-43.641
			c-5.162-4.657-35.218-20.007-44.611-23.089c-5.98-1.962-11.953-4.232-18.247-4.945c-2.876-0.326-5.8,0.112-8.635-0.34
			c-2.297-0.366-4.616-0.572-6.937-0.714c-2.236-0.137-2.452-0.74-3.88-2.293c-0.883-0.96-2.382-1.293-3.589-0.797
			c-1.932,0.794-2.609,3.172-2.785,5.254c-0.492,5.827,1.108,11.794,4.381,16.633c3.326,4.917,8.04,7.43,13.424,9.589
			c5.444,2.183,11.105,3.766,16.754,5.344c7.422,2.074,14.844,4.148,22.266,6.221c4.292,1.199,8.613,2.41,12.601,4.398
			c4.7,2.344,8.06,6.239,12.16,9.354c4.494,3.415,8.57,7.592,12.789,11.343C134,356.743,142.331,367.687,146.007,370.955z"/>
		<path style="fill:#C9CDD1;" d="M61.856,291.299c1.078-0.051,2.155-0.121,3.23-0.217c1.74-0.155,3.517-0.296,5.202-0.784
			c1.276-0.369,2.405-1.231,3.675-1.381c1.462-13.686,1.052-27.853,1.553-41.618c0.208-5.731,0.325-10.54-1.699-15.96
			c-1.618-4.333-4.754-7.642-9.279-8.901c-3.633-1.011-7.513-0.594-11.112,0.552c-7.103,2.262-12.628,6.755-16.119,13.254
			c-3.513,6.539-4.697,14.051-5.508,21.34c-1.368,12.302-1.85,24.709-1.287,37.074c0.026,0.565,0.078,1.186,0.479,1.584
			c0.602,0.595,1.599,0.362,2.404,0.101C42.411,293.418,52.443,291.744,61.856,291.299z"/>
		<path id="XMLID_654_" style="fill:#E0AC9B;" d="M61.731,230.946c-3.479-0.628-5.727-4.035-4.937-7.481
			c0,0,3.053-14.282,3.053-14.282c0.006-0.027,5.085,0.918,5.424,0.979c1.294,0.234,2.587,0.47,3.882,0.701
			c1.446,0.258,2.64-0.028,2.927,1.861c0.12,0.791-0.045,1.596-0.255,2.368c-0.544,2.006-1.381,3.914-2.025,5.888
			c-0.601,1.842-0.569,3.684-0.997,5.515C68.086,229.572,64.753,231.491,61.731,230.946z"/>
		<path style="fill:#2B417A;" d="M80.319,304.74c-0.991-0.36-11.117-3.905-15.567-5.463c-0.462-0.162-0.364-0.838,0.124-0.87
			l31.358-2.029c0.056-0.004,0.111,0.003,0.165,0.02l18.989,6.02c0.479,0.152,0.385,0.855-0.117,0.876l-34.784,1.47
			C80.429,304.768,80.374,304.76,80.319,304.74z"/>
		<path id="XMLID_653_" style="fill:#E0AC9B;" d="M63.675,219.476c-4-2.11-5.533-7.062-3.424-11.063
			c0.775-1.47,1.551-2.941,2.326-4.411c0.626-1.188,1.09-2.465,1.827-3.594c0.25-0.382,0.446-0.963,0.727-1.299
			c0.369-0.442,1.101-0.409,1.636-0.459c2.989-0.281,5.987,0.277,8.866,1.043c0.501,0.133,1.007,0.276,1.45,0.547
			c0.403,0.246,0.737,0.588,1.054,0.939c0.379,0.42,0.892,0.924,1.152,1.427c0.472,0.914,0.34,2.511,0.267,3.514
			c-0.1,1.38-0.422,2.741-0.902,4.037c-1.128,3.042-3.072,6.213-5.627,8.255C70.426,220.49,66.663,221.052,63.675,219.476z"/>
		<path style="fill:#E0AC9B;" d="M69.789,289.253c-1.325-0.594-2.65-1.189-3.975-1.783c-1.764-0.791-3.534-1.584-5.387-2.134
			c-0.458-0.136-0.938-0.258-1.409-0.174c-0.858,0.152-0.768,0.614-0.946,1.237c-0.214,0.745-0.753,1.372-1.095,2.064
			c-0.197,0.399-1.522,3.648-1.836,3.648c3.878,0.993,7.756,1.986,11.634,2.978c2.592,0.664,4.517-2.06,5.276-4.273
			c0.054-0.158,0.1-0.342,0.008-0.481c-0.058-0.088-0.16-0.136-0.257-0.179C71.13,289.854,70.459,289.553,69.789,289.253z"/>
		<g id="XMLID_627_">
			<path id="XMLID_633_" style="fill:#E0AC9B;" d="M82.276,291.626c-2.375-1.1-3.534-0.642-6.277-0.368
				c-1.036,0.103-2.105-1.283-1.078-1.472c2.837-0.524,6.31-0.896,8.573,1.096C84.019,291.343,83.151,292.031,82.276,291.626z"/>
			<path id="XMLID_632_" style="fill:#E0AC9B;" d="M66.915,290.339c0.238-0.2,0.496-0.372,0.765-0.508
				c1.489-0.757,3.255-0.699,4.91-0.473c2.447,0.335,4.861,0.995,7.128,1.977c1.753,0.759-0.023,1.816-0.944,2.487
				c-1.241,0.904-2.532,1.746-3.767,2.69c-0.304,0.232-0.617,0.469-0.986,0.572c-0.335,0.093-0.69,0.068-1.036,0.032
				c-1.646-0.174-3.265-0.592-4.789-1.237c-1.184-0.501-2.63-1.354-2.654-2.789C65.523,292.032,66.103,291.021,66.915,290.339z"/>
			<path id="XMLID_631_" style="fill:#E0AC9B;" d="M79.356,301.185c-1.394-2.909-3.681-4.949-6.4-6.122
				c-1.278-0.552-1.557,1.002-0.359,1.516c2.186,0.938,4.035,2.501,5.311,4.762C78.418,302.245,79.808,302.128,79.356,301.185z"/>
			<path id="XMLID_630_" style="fill:#E0AC9B;" d="M84.907,301.264c-2.504-5.972-5.74-8.733-11.607-9.476
				c-1.031-0.13-1.108,1.432-0.094,1.616c4.734,0.861,8.366,3.061,10.092,7.518C83.673,301.892,85.308,302.219,84.907,301.264z"/>
			<path id="XMLID_629_" style="fill:#E0AC9B;" d="M81.741,301.569c-1.177-2.316-2.534-4.778-4.467-6.56
				c-1.762-1.623-3.892-2.09-6.193-2.437c-1.029-0.155-1.053,1.465-0.036,1.619c2.403,0.363,4.35,1,5.977,2.899
				c1.348,1.572,2.228,2.573,3.161,4.41C80.655,302.427,82.213,302.497,81.741,301.569z"/>
			<path id="XMLID_628_" style="fill:#E0AC9B;" d="M80.247,291.599c-0.859-0.579-2.032,0.546-1.165,1.13
				c2.873,1.937,4.133,2.704,5.653,5.822c0.454,0.931,1.816,0.828,1.358-0.11C84.452,295.075,83.355,293.694,80.247,291.599z"/>
		</g>
		<g id="XMLID_637_">
			<path style="fill:#9B9EA1;" d="M59.727,292.013c1.68-2.433,2.942-5.099,4.332-7.694c-1.316-0.802-2.642-1.588-3.856-2.55
				c-2.244-1.779-4.328-3.831-6.121-6.065c-3.226-4.019-6.379-9.192-6.971-14.429c-0.604-5.342,1.704-12.114,3.132-17.236
				c0.478-1.714,1.002-3.438,1.062-5.216s-0.407-3.654-1.661-4.916c-3.32-3.342-7.813-0.218-10.038,2.572
				c-4.117,5.161-6.435,11.647-6.993,18.225c-1.016,11.96,3.245,23.344,11.044,32.309c3.971,4.565,8.015,7.015,12.936,9.344
				C57.633,294.91,58.709,293.486,59.727,292.013z"/>
		</g>
		<g id="XMLID_1669_">
			<path id="XMLID_64_" style="fill:#87B4C9;" d="M53.063,186.687l-0.742-3.897c-0.075-0.394-0.584-0.557-0.904-0.368
				c-1.659,0.982-2.978-1.351-1.758-2.446c0.271-0.243,0.232-0.81-0.125-0.966c-1.211-0.533-2.415-0.935-3.714-1.21
				c-0.327-0.069-0.661,0.094-0.757,0.43c-0.656,1.661-1.646,2.078-2.97,1.259c0.016-0.007,0.034-0.014,0.05-0.021
				c0.723-0.317,0.098-1.377-0.621-1.062c-0.976,0.428-2.663,1.002-3.002,2.143c-0.107,0.361-0.036,0.636,0.067,0.995
				c0.059,0.207,0.344,0.488,0.353,0.689c0.032,0.718-0.535,0.795-1.109,0.352c-0.324-0.25-0.807,0.026-0.904,0.368
				c-0.347,1.222-0.693,2.443-1.04,3.665c-0.113,0.399,0.2,0.762,0.593,0.779c1.878,0.081,3.378,2.021,1.67,3.449
				c-0.327,0.273-0.172,0.76,0.125,0.966c1.019,0.707,2.038,1.413,3.057,2.12c0.334,0.231,0.802-0.01,0.904-0.368
				c0.199-0.381,0.399-0.762,0.599-1.143c0.755-0.106,1.509-0.211,2.264-0.317c1.49,0.469,0.51,0.877,1.13,1.382
				c0.273,0.222,0.431,0.439,0.788,0.492c1.199,0.181,2.839-1.42,3.785-1.996c0.326-0.199,0.422-0.692,0.125-0.966
				c-1.743-1.609,0.045-3.314,1.708-3.571C52.98,187.39,53.119,186.982,53.063,186.687z M49.562,191.332
				c-0.537,0.377-1.111,0.792-1.66,0.974c-0.836,0.277-0.478,0.386-1.135-0.35c-0.545-0.61-1.134-1.072-1.961-1.243
				c-1.513-0.313-2.786,0.49-3.443,1.744c-0.608-0.422-1.217-0.844-1.825-1.266c1.577-1.936-0.019-4.361-2.274-4.915
				c0.208-0.735,0.417-1.469,0.625-2.204c0.889,0.455,2.014,0.635,2.513-0.479c0.208-0.464,0.098-0.914-0.067-1.362
				c-0.313-0.852-0.943-0.863,0.134-1.935c0.088-0.088,0.199-0.167,0.32-0.24c1.791,1.693,4.299,1.179,5.254-0.943
				c0.741,0.178,1.454,0.395,2.164,0.669c-1.354,2.097,0.657,4.741,3.063,4.037c0.163,0.854,0.325,1.707,0.488,2.561
				C49.55,187.032,48.149,189.397,49.562,191.332z"/>
			<path id="XMLID_1821_" style="fill:#87B4C9;" d="M47.058,184.669c-0.528-0.904-1.571-1.342-2.57-1.252
				c-0.104-0.035-0.224-0.041-0.36,0c-0.212,0.064-0.412,0.156-0.599,0.266c-0.092,0.046-0.183,0.095-0.27,0.152
				c-0.078,0.051-0.136,0.111-0.18,0.175c-0.82,0.729-1.213,1.908-0.768,2.989c0.554,1.343,2.294,2.038,3.61,1.391
				C47.237,187.744,47.803,185.943,47.058,184.669z M45.467,187.242c-0.639,0.38-1.576,0.074-1.944-0.551
				c-0.384-0.652-0.087-1.444,0.48-1.859c0.637-0.341,1.482-0.25,1.929,0.37C46.39,185.836,46.127,186.848,45.467,187.242z"/>
			<path id="XMLID_1950_" style="fill:#87B4C9;" d="M61.219,171.655c-0.739-1.788-2.794-2.796-4.639-2.15
				c-0.169,0.059-0.28,0.167-0.346,0.294c-1.365,0.869-1.968,2.675-1.267,4.187c0.785,1.695,2.83,2.593,4.59,1.915
				C61.29,175.234,61.906,173.317,61.219,171.655z M58.95,174.811c-2.565,0.757-4.29-2.941-1.743-4.148
				c0.05-0.024,0.092-0.051,0.129-0.081c0.986-0.162,2.01,0.264,2.556,1.152C60.582,172.857,60.327,174.405,58.95,174.811z"/>
			<path id="XMLID_1953_" style="fill:#87B4C9;" d="M69.349,170.712c-0.216-1.225-0.48-2.43-0.797-3.632
				c-0.079-0.301-0.447-0.546-0.757-0.43c-0.58,0.217-1.271,0.617-1.887,0.695c-0.861,0.399-1.426-0.172-1.694-1.712
				c0.297-0.439,0.637-0.842,1.02-1.206c0.259-0.267,0.239-0.786-0.124-0.966c-0.815-0.402-2.514-1.75-3.487-1.499
				c-1.106,0.285-0.941,1.79-1.827,2.36c-2.428,1.564-2.159-1.682-3.389-2.19c-0.838-0.346-2.593,0.784-3.33,1.123
				c-0.287,0.132-0.396,0.587-0.221,0.842c0.294,0.384,0.532,0.802,0.712,1.254c-0.417,1.092-0.955,1.405-1.615,0.939
				c-0.66-0.171-1.293-0.79-1.889-1.117c-0.235-0.129-0.555-0.105-0.745,0.096c-0.426,0.448-0.851,0.895-1.277,1.342
				c-0.018,0.019-0.031,0.039-0.046,0.059c-0.323,0.248-0.425,0.771,0.04,0.992c1.108,0.361,1.518,1.304,1.228,2.83
				c-0.405,0.267-0.838,0.425-1.3,0.474c-0.214,0.137-0.448,0.188-0.596,0.415c-0.592,0.911,0.378,3.033,0.604,3.938
				c0.105,0.419,0.555,0.523,0.904,0.368c2.46,0.441,3.181,1.212,2.165,2.312c-0.021,0.049-0.041,0.098-0.062,0.147
				c-0.11,0.32-0.19,0.41-0.105,0.725c0.256,0.953,2.102,1.967,2.784,2.55c0.302,0.258,0.747,0.234,0.966-0.124
				c0.229-0.374,1.096-1.674,1.66-1.695c1.097-0.041,1.212,1.785,1.196,2.503c-0.009,0.433,0.399,0.657,0.779,0.593
				c0.981-0.166,3.123-0.078,3.775-0.963c0.215-0.293,0.161-0.593,0.202-0.921c-0.042-0.572,0.067-1.113,0.325-1.625
				c1.14-0.826,2.217-0.868,3.23-0.128c0.309,0.155,0.649,0.072,0.842-0.221c0.678-1.031,1.356-2.062,2.034-3.093
				c0.181-0.276,0.057-0.684-0.221-0.842c-0.346-0.167-0.665-0.375-0.958-0.622c-1.181-0.665-0.759-1.595,1.265-2.788
				C69.182,171.468,69.42,171.117,69.349,170.712z M65.358,172.587c-0.187,1.391,0.84,2.35,1.915,3.041
				c-0.463,0.705-0.926,1.409-1.39,2.114c-1.377-0.613-2.939-0.95-4.062,0.363c-0.604,0.707-0.513,1.31-0.798,2.123
				c-0.3,0.854,0.186,0.426-0.496,0.842c-0.413,0.251-1.179,0.308-1.838,0.36c-0.101-1.23-0.554-2.852-1.771-3.139
				c-1.165-0.275-2.28,0.85-2.978,1.818c-0.497-0.351-1.072-0.76-1.279-1.159c-0.441-0.849-0.029-0.983,0.16-1.665
				c0.211-0.758,0.145-1.558-0.335-2.202c-0.883-1.188-2.286-1.14-3.53-0.731c-0.231-0.668-0.539-1.55-0.436-1.92
				c0.176-0.636-0.157,0.088,0.608-0.429c0.697-0.471,1.284-0.749,1.618-1.587c0.574-1.438-0.245-2.648-1.378-3.413
				c0.166-0.174,0.331-0.348,0.497-0.523c1.216,0.751,2.667,1.862,4.068,0.987c1.316-0.822,0.972-2.275,0.345-3.413
				c0.379-0.168,0.762-0.33,1.151-0.476c0.479-0.41,0.748-0.275,0.805,0.408c0.348,0.324,0.54,0.91,0.873,1.268
				c0.46,0.492,0.981,0.891,1.687,0.894c0.916,0.005,1.773-0.763,2.296-1.434c0.123-0.158,0.519-1.155,0.703-1.24
				c0.486-0.225,1.37,0.269,2.044,0.671c-0.899,1.073-1.655,2.48-0.742,3.784c1.043,1.491,2.989,0.724,4.434,0.143
				c0.186,0.753,0.352,1.509,0.498,2.27C66.776,170.552,65.549,171.171,65.358,172.587z"/>
		</g>
		<path style="fill:#13285E;" d="M81.505,200.733c-0.213-1.041-0.713-2.022-1.471-2.767c-2.284-2.245-5.791-2.19-8.521-3.514
			c-0.982-0.476-1.914-1.057-2.921-1.476c-3.003-1.25-6.014,0.299-8.074,2.634c-1.599,1.811-2.561,4.135-2.918,6.525
			c-0.111,0.741-0.165,1.498-0.051,2.239c0.171,1.103,0.708,2.086,1.052,3.136c0.334,1.019,0.122,2.116,0.55,3.082
			c0.357,0.809,1.164,0.24,1.568-0.123c0.63-0.565,2.852-3.982,3.664-3.231c0.092,0.085,0.155,0.197,0.249,0.28
			c0.29,0.255,0.775,0.126,1.03-0.165c0.255-0.29,0.343-0.687,0.432-1.063c0.317-1.342,0.912-2.817,2.205-3.296
			c1.418-0.525,2.87,0.585,3.933,1.356c1.232,0.893,2.712,1.588,4.202,1.97c2.044,0.524,3.692-0.163,4.65-2.087
			C81.619,203.158,81.745,201.908,81.505,200.733z"/>
		<path style="fill:#E0AC9B;" d="M64.265,205.316c-1.103,0.188-2.312,1.098-2.387,2.275c-0.05,0.788,0.43,2.17,1.32,2.095
			c0.074,0.044,0.148,0.081,0.218,0.103c0.101,0.031,0.214,0.047,0.33,0.056c0.013,0.005,0.025,0.012,0.04,0.016
			c1.31,0.283,2.322-1.165,2.478-2.312C66.426,206.355,65.577,205.093,64.265,205.316z"/>
		<path style="fill:#13285E;" d="M70.633,191.192c-0.614-2.112-2.848-3.522-4.952-3.098c-1.411,0.285-2.734,1.111-3.332,2.461
			c-0.895,2.023,0.822,6.004,3.278,6.047c0.888,0.015,1.733-0.373,2.489-0.838c0.774-0.476,1.506-1.054,2.012-1.809
			c0.506-0.755,0.766-1.709,0.549-2.592C70.664,191.305,70.649,191.248,70.633,191.192z"/>
		<path style="fill:#110809;" d="M73.693,214.832c-0.559,0.016-0.991,0.509-1.55,0.643c-0.752,0.18-1.831,0.085-2.189-0.712
			c-0.089-0.198-0.406-0.057-0.347,0.146c0.245,0.845,1.094,1.19,1.913,1.243c0.734,0.048,2.226-0.182,2.371-1.061
			C73.912,214.966,73.838,214.828,73.693,214.832z"/>
		<path style="fill:#110809;" d="M64.196,207.23c-0.411-0.08-0.956,0.069-1.03,0.553c-0.058,0.377,0.229,0.695,0.599,0.702
			c0.212,0.004,0.328-0.23,0.259-0.401c0.058-0.007,0.115-0.016,0.173-0.025C64.614,207.996,64.598,207.308,64.196,207.23z"/>
		<path id="XMLID_79_" style="fill:#13285E;" d="M117.765,303.523l-37.761,1.188l7.387-22.04c0.254-0.757,0.918-2.514,1.745-2.602
			c3.412-0.36,35.119,0.373,35.119,0.373c1.226,0.027,2.075,1.24,1.683,2.406L117.765,303.523z"/>
		<path style="fill:#FFFFFF;" d="M104.783,289.684c-1.167,0.114-2.432,1.227-2.057,2.477c0.083,0.278,0.496,0.318,0.66,0.099
			c0.396-0.529,0.717-1.208,1.467-1.258c0.831-0.056,1.067,0.616,1.46,1.175c0.291,0.414,1.119,0.281,1.135-0.283
			C107.488,290.577,106.034,289.561,104.783,289.684z"/>
	</g>
	<path style="fill:#C7E1ED;" d="M143.227,36.124c-0.625,0.05-1.255,0.149-1.898,0.306c-5.736,1.396-6.761,5.191-11.15,7.576
		c-3.818,2.074-9.16,1.331-13.562,2.581c-2.079,0.59-3.927,1.637-5.259,2.978c-0.567,0.571-1.049,1.206-1.252,1.903
		c-0.716,2.455,2.247,4.738,5.406,5.534c3.158,0.796,6.601,0.644,9.837,1.236c7.029,1.288,9.421,6.58,16.524,7.747
		c5.635,0.926,11.758-0.258,16.247-2.963c0.896-0.54,2.095-2.02,3.064-2.323c1.286-0.401,2.651,0.295,4.049,0.582
		c3.08,0.633,6.309,0.833,9.491,0.731c6.368-0.204,17.798-3.324,12.278-9.666c-1.57-1.804-4.168-2.952-6.821-3.757
		c-3.777-1.146-7.855-1.723-11.925-1.688c0.742-2.628-0.712-5.537-3.569-7.14c-2.856-1.603-6.964-1.816-10.083-0.522
		c0.03-0.012-5.758-2.501-6.488-2.667C146.438,36.193,144.851,35.993,143.227,36.124z"/>
	<path style="fill:#C7E1ED;" d="M152.229,159.667c-0.501-0.039-1.006-0.115-1.522-0.235c-4.598-1.074-5.42-3.992-8.939-5.825
		c-3.061-1.595-7.343-1.023-10.872-1.985c-1.667-0.454-3.148-1.259-4.216-2.29c-0.455-0.439-0.841-0.927-1.003-1.463
		c-0.574-1.888,1.802-3.644,4.333-4.256c2.532-0.612,5.292-0.495,7.886-0.951c5.635-0.99,7.553-5.059,13.247-5.957
		c4.518-0.712,9.426,0.199,13.025,2.278c0.718,0.415,1.679,1.554,2.456,1.786c1.031,0.309,2.125-0.227,3.246-0.448
		c2.469-0.487,5.057-0.641,7.609-0.562c5.105,0.157,14.268,2.556,9.842,7.433c-1.259,1.387-3.342,2.27-5.468,2.889
		c-3.028,0.881-6.297,1.325-9.559,1.298c0.594,2.021-0.571,4.258-2.861,5.49c-2.29,1.233-5.583,1.396-8.083,0.401
		c0.024,0.009-4.616,1.923-5.201,2.051C154.803,159.614,153.531,159.767,152.229,159.667z"/>
	<g>
		<path style="opacity:0.13;fill:#110809;" d="M393.004,443.393c4.839,0.559,9.924,1.305,13.677,3.948
			c0.839,0.591,1.657,1.448,1.387,2.343c-0.157,0.521-0.656,0.915-1.163,1.24c-3.091,1.979-7.137,2.449-10.99,2.816
			c-53.914,5.133-108.434,2.898-162.558,6.086c-16.153,0.952-32.613,2.367-48.361-0.819c-1.799-0.364-3.808-0.946-4.534-2.386
			c-1.187-2.355,1.925-4.599,4.688-5.642c12.603-4.756,26.858-4.896,40.655-5.116c23.077-0.368,46.145-1.18,69.179-2.436
			c20.197-1.102,40.331-2.86,60.598-2.508C368.1,441.136,380.6,441.961,393.004,443.393z"/>
		<path style="fill:#E0AC9B;" d="M293.619,368.827c-2.215-1.836-4.164-1.164-6.089,1.178c-0.827,1.006-1.969,1.937-3.239,2.652
			c-0.388,0.218-2.463,1.245-1.644,1.719c0.011,0.065,0.033,0.128,0.072,0.187c0.021,0.031,0.041,0.063,0.061,0.094
			c0.19,0.292,0.672,0.379,1.06,0.322c0.363-0.053,0.703-0.146,1.034-0.253c0.759,0.256,1.591,0.325,2.517,0.278
			c2.23-0.112,4.423-0.76,6.233,0.696c1.578,1.27,2.906,2.903,3.896,4.665c0.608,1.083,1.101,2.243,1.887,3.204
			c0.786,0.961,1.959,1.717,3.196,1.61c0.544-0.047,1.064-0.258,1.536-0.533c1.747-1.018,2.912-3.235,2.197-5.126
			c-0.898-2.376-3.807-3.079-5.652-4.496C298.724,373.52,293.685,368.882,293.619,368.827z"/>
		<g>
			<path style="fill:#87C98B;" d="M403.507,395.985c-0.826-0.362-1.774-0.316-2.659-0.147c-3.58,0.683-6.552,3.188-8.895,5.98
				c-1.852,2.208-3.414,4.657-4.655,7.258c1.489-3.891,2.665-7.903,3.508-11.983c0.831-4.023,1.339-8.177,0.704-12.234
				c-0.204-1.304-0.619-2.724-1.747-3.41c-1.104-0.671-2.591-0.392-3.637,0.368c-1.045,0.759-1.73,1.91-2.313,3.062
				c-2.212,4.366-3.376,9.175-4.522,13.934c-0.504,2.095-1.009,4.189-1.513,6.283c-0.013-7.259-0.027-14.534-0.802-21.751
				c-0.302-2.812-0.728-5.646-1.805-8.261c-0.505-1.226-1.236-2.476-2.455-2.998c-1.204-0.516-2.647-0.179-3.716,0.578
				c-1.069,0.757-1.823,1.877-2.46,3.021c-4.285,7.698-4.122,17.141-2.263,25.753c-1.799-2.067-3.963-3.816-6.361-5.142
				c-1.105-0.611-2.33-1.145-3.585-1.014c-2.806,0.292-4.195,3.56-4.565,6.357c-1.33,10.048,2.951,19.967,7.952,28.783
				c2.492,4.393,5.187,8.667,7.958,12.888c1.371,2.087,2.955,4.117,4.179,6.292c1.63-0.013,3.26-0.029,4.889-0.041
				c9.83-8.103,18.087-18.105,24.154-29.306c3.075-5.677,5.615-11.729,6.581-18.113
				C405.826,399.844,405.635,396.919,403.507,395.985z"/>
			<path style="fill:#73AB76;" d="M370.158,445.407c0.786,1.152,1.591,2.482,2.568,3.333c1.129,0.982,1.739,0.813,3.387,0.813
				c0.027-0.016,0.059-0.026,0.102-0.023c0.076,0.006,0.151,0.016,0.227,0.023c0.566-0.002,1.131-0.004,1.697-0.003
				c0.355,0.001,0.711,0.001,1.066,0.001c1.349-0.041,2.698-0.083,4.047-0.136c2.295-0.09,4.588-0.22,6.88-0.359
				c1.008-0.748,1.958-1.49,2.804-2.172c1.256-1.013,2.289-1.895,2.959-2.47c0.56-0.481,1.138-0.984,1.446-1.655
				c0.309-0.671,0.27-1.562-0.29-2.044c-1.811-1.557-8.633,4.01-12.205,5.942c8.47-4.58,14.276-13.825,16.995-23.062
				c0.327-1.112,0.536-2.405-0.132-3.352c-0.647-0.918-1.948-1.18-3.037-0.904s-2.011,0.984-2.876,1.701
				c-2.483,2.059-4.781,4.342-6.857,6.812c4.794-6.812,8.154-14.628,9.798-22.794c0.234-1.163,0.378-2.531-0.445-3.386
				c-0.764-0.793-2.044-0.777-3.107-0.492c-2.958,0.794-5.281,3.182-6.706,5.893c-1.425,2.711-2.075,5.75-2.711,8.746
				c0.375-6.721,0.737-13.581-1.046-20.072c-0.225-0.819-0.502-1.662-1.094-2.272c-1.029-1.061-2.795-1.118-4.122-0.466
				c-1.327,0.652-2.286,1.868-3.06,3.128c-4.819,7.84-3.879,17.808-2.411,26.894c-0.485-3.001-9.499-14.697-11.774-8.27
				c-0.32,0.906-0.264,1.898-0.147,2.852c0.999,8.095,5.991,15.059,10.822,21.631c-0.943,0.231-1.847-0.413-2.692-0.893
				c-0.845-0.48-2.061-0.753-2.671,0.003c-0.265,0.328-0.333,0.773-0.331,1.195c0.009,1.908,1.216,3.575,2.369,5.095
				C369.795,444.883,369.976,445.14,370.158,445.407z"/>
		</g>
		<g id="XMLID_1980_">
			<path id="XMLID_1987_" style="fill:#87B4C9;" d="M305.658,294.636c-2.152,0.281-4.191-0.117-6.063-1.225
				c-0.627-0.371-1.196,0.605-0.57,0.975c2.023,1.198,4.299,1.684,6.633,1.38C306.369,295.673,306.378,294.542,305.658,294.636z"/>
			<path id="XMLID_1986_" style="fill:#87B4C9;" d="M311.079,281.384c-1.825-0.331-3.629-0.326-5.452,0.016
				c-0.714,0.134-0.411,1.223,0.3,1.09c1.616-0.303,3.234-0.309,4.852-0.016C311.49,282.602,311.795,281.513,311.079,281.384z"/>
			<path id="XMLID_1985_" style="fill:#87B4C9;" d="M314.042,279.842c-3.321-1.343-6.843-1.508-10.281-0.511
				c-0.697,0.202-0.4,1.293,0.3,1.09c3.267-0.947,6.53-0.763,9.681,0.511C314.415,281.204,314.708,280.112,314.042,279.842z"/>
			<path id="XMLID_1984_" style="fill:#87B4C9;" d="M316.667,277.932c-4.575-2.605-10.004-2.79-14.76-0.548
				c-0.657,0.31-0.084,1.284,0.57,0.976c4.379-2.064,9.419-1.844,13.619,0.548C316.729,279.268,317.299,278.292,316.667,277.932z"/>
			<path id="XMLID_1981_" style="fill:#87B4C9;" d="M314.64,288.544c-1.207-2.269-4.662-3.407-6.974-3.605
				c-2.743-0.235-5.62,1.15-6.371,3.861c-4.436-1.559-7.48,4.06-5.011,7.824c1.394,2.125,3.975,3.299,6.482,3.226
				c2.571-0.074,4.662-1.413,6.375-3.205c2.926,3.471,9.299,2.607,11.202-1.66C322.106,291.034,318.274,287.568,314.64,288.544z
				 M318.59,295.633c-2.276,2.61-6.937,2.928-8.916-0.153c-0.185-0.288-0.636-0.399-0.887-0.114
				c-2.472,2.799-6.209,4.563-9.737,2.381c-1.552-0.96-2.718-2.661-2.611-4.539c0.144-2.534,2.611-4.343,4.982-3.137
				c0.287,0.146,0.774,0.047,0.83-0.338c0.38-2.64,2.93-3.902,5.417-3.663c1.244,0.12,2.496,0.478,3.618,1.028
				c0.574,0.281,1.128,0.623,1.597,1.06c0.533,0.497,0.68,0.921,0.925,1.581c0.042,0.113,0.096,0.232,0.2,0.293
				c0.119,0.071,0.274,0.046,0.398-0.018c0.123-0.063,0.225-0.16,0.34-0.239c1.339-0.921,3.39,0.161,4.193,1.312
				C319.935,292.516,319.715,294.343,318.59,295.633z"/>
		</g>
		<g id="XMLID_1742_">
			<path id="XMLID_1958_" style="fill:#87B4C9;" d="M290.385,349.024c-1.901-2.057-3.899-4.017-5.969-5.902
				c0.188-0.38,0.34-0.781,0.445-1.202c1.107-4.425-1.116-9.28-5.367-10.951c-0.063-0.054-0.14-0.1-0.233-0.13
				c-4.095-1.324-9.126,1.624-9.984,5.81c-0.826,4.029,1.505,8.602,5.358,10.138c2.324,0.927,5.182,0.472,7.315-0.941
				c2.296,1.934,4.33,4.079,6.522,6.127c0.883,0.825,2.931,1.996,3.954,0.625C293.326,351.393,291.061,349.756,290.385,349.024z
				 M274.577,345.361c-2.939-1.511-4.695-5.139-4.068-8.383c0.679-3.516,4.947-5.994,8.376-4.919
				c0.049,0.036,0.102,0.068,0.166,0.092c4.644,1.743,6.812,8.903,2.734,12.241c-0.194,0.047-0.362,0.175-0.459,0.337
				C279.371,346.062,276.633,346.418,274.577,345.361z M289.362,351.07c-0.338-0.336-0.652-0.698-0.982-1.037
				c-0.518-0.533-1.04-1.06-1.574-1.577c-1.231-1.192-2.514-2.323-3.832-3.417c0.272-0.255,0.523-0.528,0.75-0.82
				c1.111,1.015,2.208,2.045,3.27,3.112c1.358,1.362,2.994,2.548,3.883,4.288c-0.067,0.167-0.273,0.243-0.452,0.216
				c-0.178-0.027-0.333-0.134-0.476-0.244C289.742,351.432,289.548,351.255,289.362,351.07z"/>
			<path id="XMLID_1951_" style="fill:#87B4C9;" d="M279.322,341.141c-0.955,0.799-1.998,1.299-3.256,0.989
				c-0.794-0.195-1.677-0.495-2.228-1.118c-0.545-0.615-1.437,0.296-0.895,0.909c0.801,0.904,2.21,1.398,3.377,1.557
				c1.514,0.206,2.786-0.502,3.911-1.442C280.86,341.509,279.947,340.619,279.322,341.141z"/>
		</g>
		<g id="XMLID_210_">
			<g id="XMLID_350_">
				<g id="XMLID_211_">
					<path id="XMLID_1815_" style="fill:#E0AC9B;" d="M268.377,370.873c-0.119-1.035,0.219-2.074,0.364-3.111
						c0.402-2.872-0.752-4.884-2.159-7.244c-0.135-0.227-0.29-0.47-0.539-0.557c-0.328-0.115-0.696,0.1-0.876,0.397
						c-0.18,0.297-0.218,0.655-0.26,0.999c-0.21,1.736-0.616,3.448-1.208,5.093c-0.537,1.494-1.227,2.935-1.669,4.46
						c-0.454,1.567-0.651,3.232-0.001,4.743c0.678,1.576,1.454,3.053,2.374,4.508c1.187,1.878,2.375,3.757,3.562,5.635
						c0.419,0.663,0.872,1.693,1.756,1.646c0.893-0.047,1.881-0.508,2.723-0.789c1.42-0.473,3.098-1.177,2.41-3.018
						c-0.211-0.563-0.582-1.049-0.949-1.526c-1.064-1.384-2.127-2.768-3.191-4.151c-0.406-0.528-0.826-1.083-1.05-1.718
						c-0.213-0.601-0.086-1.105-0.126-1.713c-0.081-1.237-0.939-2.275-1.138-3.488C268.391,370.983,268.384,370.928,268.377,370.873
						z"/>
				</g>
			</g>
		</g>
		<g id="XMLID_205_">
			<g id="XMLID_348_">
				<g id="XMLID_209_">
					<path id="XMLID_1811_" style="fill:#69418C;" d="M358.499,432.703c1.482-3.78,1.503-8.315,2.325-12.311
						c-9.298-4.054-19.029-10.889-27.517-16.615c-6.919-4.667-13.328-10.058-19.769-15.352
						c-5.727-4.708-11.658-10.326-18.044-14.044c-1.48-0.862-3.108-1.45-4.774-1.847c-3.837-0.913-7.997-0.786-11.588,0.847
						c-3.929,1.787-7.339,5.359-6.578,9.782c0.991,5.757,2.702,10.902,5.803,15.895c3.885,6.254,9.088,10.753,12.438,17.294
						c3.892,7.599,9.791,13.97,15.812,19.928c3.666,3.628,7.468,7.2,11.938,9.771c6.25,3.595,13.697,4.969,20.834,4.071
						c7.163-0.901,13.074-4.838,17.334-10.699C358.099,437.516,357.643,434.886,358.499,432.703z"/>
				</g>
			</g>
		</g>
		<g id="XMLID_199_">
			<g id="XMLID_5_">
				<g id="XMLID_202_">
					<path id="XMLID_1803_" style="fill:#69418C;" d="M296.152,385.692c-2.688,4.379-6.44,8.033-10.345,11.389
						c-4.359,3.746-8.964,7.195-13.564,10.64c-12.954,9.701-25.966,19.439-40.189,27.162c-3.133-2.342-6.389-4.518-9.75-6.518
						c0.042,0.025,7.554-10.275,8.09-10.992c4.382-5.858,9.029-11.503,14.057-16.879c0.766-0.819,1.54-1.63,2.322-2.434
						c5.586-5.74,11.582-11.08,17.927-15.969c6.04-4.655,12.38-10.232,20.384-10.445c3.986-0.106,6.845,1.87,9.937,4.107
						c1.313,0.95,2.21,1.583,2.673,3.176c0.59,2.029,0.026,4.032-0.994,5.836C296.522,385.076,296.34,385.386,296.152,385.692z"/>
				</g>
			</g>
		</g>
		<g id="XMLID_194_">
			<g id="XMLID_3_">
				<g id="XMLID_197_">
					<path style="fill:#94A5B5;" d="M230.682,431.422c-1.63-0.987-3.239-1.994-4.928-2.875c-0.746-0.389-1.448-0.771-2.074-1.25
						c-0.899,0.406-1.773,1.496-2.549,2.097c-1.925,1.493-3.977,2.821-6.124,3.971c-4.294,2.299-8.973,3.884-13.788,4.634
						c-1.418,0.221-5.01,0.4-5.103,2.331c-0.095,1.961,2.304,3.959,3.909,4.587c1.336,0.522,2.798,0.593,4.231,0.658
						c6.503,0.294,13.007,0.657,19.518,0.722c2.664,0.026,5.326,0.083,7.99,0.054c0.559-0.006,1.091-0.027,1.591-0.091
						c2.279-0.289,3.109-1.611,3.241-3.795c0.066-1.086,0.132-2.172,0.198-3.258c0.083-1.361,0.165-2.722,0.248-4.083
						C234.962,433.82,232.758,432.679,230.682,431.422z"/>
				</g>
			</g>
		</g>
		<g id="XMLID_164_">
			<g id="XMLID_188_">
				<g id="XMLID_189_">
					<g id="XMLID_190_">
						<g id="XMLID_192_">
							<g id="XMLID_1357_">
								<path style="fill:#E0AC9B;" d="M302.501,336.668c-0.069,0.034-0.132,0.066-0.202,0.1c0,0,0.308,1.1,0.805,2.874
									C302.912,338.647,302.713,337.655,302.501,336.668z"/>
								<path style="fill:#E0AC9B;" d="M334.674,359.434c-2.301-3.825-4.566-7.676-6.749-11.57c-2.099-3.744-4.13-7.54-6.076-11.366
									c-0.72-1.417-1.417-2.848-2.013-4.322c-0.609-1.509-0.906-3.093-1.436-4.61c-1.131-0.08-2.013-0.634-3.247-0.45
									c-1.237,0.185-2.567,0.619-3.774,0.971c-2.061,0.601-3.364,2.008-4.62,3.65c-1.407,1.841-1.389,4.043-1.19,6.287
									c0.927,10.414,4.32,21.068,9.926,29.913c0.527,0.831,1.082,1.644,1.675,2.429c0.606,0.803,1.303,1.607,1.986,2.436
									c4.267-0.371,8.442-1.775,12.251-3.769c2.906-1.521,4.379-3.541,6.02-5.675
									C336.055,361.465,334.739,359.541,334.674,359.434z"/>
							</g>
						</g>
					</g>
				</g>
			</g>
			<g id="XMLID_185_">
				<g id="XMLID_624_">
					<g id="XMLID_186_">
						<g id="XMLID_187_">
							<g id="XMLID_1352_">
								<path id="XMLID_1789_" style="fill:#E0AC9B;" d="M312.285,343.575c1.749-0.459,3.518-1.156,4.71-2.424
									c0.714-0.76,4.058-5.584,3.653-6.41c-2.187-4.461-1.164-14.975-2.389-15.859c-2.644-1.908-7.705-2.925-10.957-2.687
									c-4.351,0.318-7.879,0.978-9.162,5.412c-1.572,5.433-3.267,11.047-1.761,16.71c0.302,1.138,0.737,2.257,1.444,3.199
									c1.342,1.786,3.559,2.759,5.777,3.031c2.218,0.272,4.463-0.082,6.655-0.516
									C310.904,343.902,311.593,343.757,312.285,343.575z"/>
							</g>
						</g>
					</g>
				</g>
			</g>
		</g>
		<g id="XMLID_162_">
			<g id="XMLID_163_">
				<path id="XMLID_1762_" style="fill:#87B4C9;" d="M359.415,394.068c-0.843-3.254-1.856-6.437-3.002-9.502
					c-2.626-7.025-6.136-13.723-10.447-19.861c-4.112-5.855-9.015-11.885-15.107-15.78c-2.497-1.596-5.52-2.876-8.532-2.214
					c-4.315,0.948-8.51,5.493-11.025,8.86c-2.839,3.8-3.656,7.916-2.491,12.446c1.035,4.028,2.493,7.923,4.059,11.771
					c3.138,7.708,6.393,15.314,7.373,23.66c0.388,3.304,0.458,6.642,0.269,9.962c-0.079,1.387-0.38,2.31,1.062,2.745
					c1.184,0.357,2.549,0.451,3.772,0.795c1.881,0.529,3.484,1.734,5.09,2.847c3.893,2.7,8.065,4.996,12.428,6.841
					c3.936,1.664,8.147,3.035,11.264,5.959c1.294,1.214,2.374,2.677,3.858,3.649c-0.08-0.053,1.676-5.123,1.8-5.517
					C363.519,418.882,362.494,405.951,359.415,394.068z"/>
			</g>
		</g>
		<g id="XMLID_144_">
			<g id="XMLID_147_">
				<g id="XMLID_148_">
					<path style="fill:#78579C;" d="M354.05,431c-5.425-4.713-11.024-9.224-16.631-13.718c-5.967-4.783-11.526-9.464-16.772-15.049
						c-6.812-7.254-14.184-13.641-22.298-19.375c-3.259-2.303-2.003-1.349-5.471-3.322c-3.469-1.972-7.568-3.144-11.476-2.338
						l-9.745,8.346c-0.916,6.579,1.804,13.142,5.309,18.784c3.885,6.254,8.317,10.939,12.438,17.294
						c4.646,7.163,9.791,13.97,15.812,19.928c3.666,3.627,7.468,7.2,11.938,9.771c6.25,3.595,13.697,4.969,20.835,4.071
						c7.163-0.901,14.112-4.209,17.334-10.699c1.425-2.871,2.542-6.255,3.421-9.505c-0.457-0.425-0.811-0.748-0.947-0.871
						C356.559,433.198,355.309,432.093,354.05,431z"/>
				</g>
			</g>
		</g>
		<path style="fill:#110809;" d="M259.026,338.045l11.246,36.293c0.133,0.428,0.574,0.679,1.01,0.575l0,0
			c0.478-0.115,0.759-0.609,0.614-1.078l-11.246-36.293c-0.133-0.428-0.574-0.679-1.01-0.575l0,0
			C259.162,337.082,258.881,337.576,259.026,338.045z"/>
		<path style="fill:#110809;" d="M270.977,373.749v1.556c0,0,33.099,1.728,34.054,2.157l0.946-1.669L270.977,373.749z"/>
		<g id="XMLID_137_">
			<g id="XMLID_138_">
				<g id="XMLID_139_">
					<path style="fill:#78579C;" d="M298.609,384.439c-0.328-2.354-2.023-3.165-3.995-4.338c-2.714-1.615-6.755-3.326-9.927-3.654
						c-3.637-0.376-7.867,2.465-10.828,4.265c-11.899,7.231-22.405,16.496-32.164,26.372c-4.914,4.973-10.083,10.003-14.481,15.444
						c-1.1,1.36-11.651,15.608-12.348,15.208c4.675,2.677,11.076,3.229,15.751,5.906c2.954-2.464,6.512-5.331,9.741-7.42
						c4.451-2.879,8.837-5.86,13.154-8.938c8.809-6.282,17.327-12.971,25.519-20.039c4.096-3.534,8.111-7.162,12.039-10.881
						C294.222,393.38,299.301,389.403,298.609,384.439z"/>
				</g>
			</g>
		</g>
		<g id="XMLID_2_">
			<g id="XMLID_133_">
				<g id="XMLID_135_">
					<path style="fill:#AEB5BD;" d="M232.218,442.85c-1.383-0.589-2.893-0.767-4.291-1.323c-1.378-0.548-2.711-1.18-4.123-1.648
						c-2.949-0.977-5.968-1.722-8.969-2.517c-1.23,0.475-2.352,1.667-3.361,2.374c-1.863,1.305-3.758,2.594-5.86,3.486
						c-1.668,0.708-3.433,1.154-5.19,1.596c-2.2,0.555-4.4,1.109-6.599,1.664c-1.633,0.412-4.445,0.491-5.202,2.314
						c-0.254,0.612-0.17,1.319,0.014,1.957c0.549,1.908,1.988,3.522,3.787,4.247c1.296,0.522,2.715,0.593,4.105,0.658
						c5.974,0.278,11.947,0.618,17.928,0.709c2.999,0.045,6,0.027,8.997-0.085c1.6-0.06,3.199-0.146,4.795-0.261
						c0.833-0.06,3.239,0.216,3.753-0.543c0.283-0.418,0.3-0.956,0.308-1.461c0.049-3.307,0.098-6.614,0.147-9.921
						c0.006-0.414,0.003-0.813-0.01-1.203C232.374,442.895,232.297,442.884,232.218,442.85z"/>
				</g>
			</g>
		</g>
		<path style="fill:#87B4C9;" d="M332.275,358.577c-0.761-6.874-7.841-9.463-13.85-7.381c-3.295,1.142-6.021,3.57-8.099,6.37
			c-2.078,2.8-3.573,5.981-5.053,9.138l-8.978,19.139c-0.434,0.926-1.118,3.572-2.193,3.87c-0.972,0.269-2.181-0.65-2.925-1.16
			c-1.058-0.725-2.053-1.58-3.099-2.348c-2.648-1.944-5.071-4.135-7.624-6.187c-0.624-0.502-5.85-5.156-7.537-6.336
			c-2.047,1.072-3.951,2.696-5.737,3.986c-1.337,0.966-2.758,1.923-4.128,2.936c2.671,3.537,13.338,16.407,14.4,17.579
			c3.969,4.384,8.228,8.741,13.514,11.526c3.354,1.768,7.402,1.63,10.406-0.852c12.547-10.364,22.464-23.885,28.582-38.965
			C331.327,366.503,332.687,362.297,332.275,358.577z"/>
		<path style="fill:#E0AC9B;" d="M270.644,372.893c0.32-0.75,0.463-1.215,0.551-2.042c0.087-0.821,0.213-1.639,0.376-2.448
			c0.065-0.319,0.135-0.646,0.08-0.967c-0.055-0.321-0.269-0.638-0.587-0.709c-0.345-0.077-0.688,0.154-0.911,0.428
			c-1.057,1.298-0.62,4.673-3.032,4.64c-0.256-0.004-0.509-0.076-0.764-0.061c-0.62,0.036-1.111,0.6-1.246,1.206
			c-0.135,0.606,0.013,1.238,0.211,1.826c0.23,0.682,0.66,2.429,1.478,2.6c0.82,0.172,2.031-1.1,2.455-1.658
			C269.899,374.863,270.233,373.856,270.644,372.893z"/>
		<path style="fill:#13285E;" d="M324.096,331.207c1.285-1.878,2.61-3.86,2.841-6.124c0.365-3.579-2.203-6.941-5.378-8.633
			c-3.176-1.692-6.864-2.065-10.446-2.407c-1.653-2.767-4.932-4.475-8.146-4.244c-1.134,0.082-2.308,0.419-3.095,1.241
			c-0.786,0.822-1.042,2.215-0.341,3.11c-2.024-0.11-4.08,0.712-5.472,2.186c-0.929,0.984-1.577,2.316-1.44,3.662
			c0.163,1.608,1.43,2.948,2.913,3.589c1.483,0.642,3.153,0.693,4.765,0.59c3.915-0.25,7.721-1.339,11.492-2.422
			c-2.045,0.372-2.941,3.241-1.747,4.942c1.194,1.701,3.769,2.035,5.603,1.059c-1.401,2.266-1.491,5.283-0.229,7.628
			c1.533,2.848,6.265,5.952,9.533,4.739C329.707,338.357,328.67,332.363,324.096,331.207z"/>
		<path style="fill:#E0AC9B;" d="M282.527,374.41c0.976,0.093,1.949,0.187,2.911,0.187c0.754,0.045,1.507,0.089,2.26,0.134
			c1.418,0.084,2.837,0.168,4.255,0.252c0.613,0.036,1.234,0.072,1.836-0.052c1.381-0.283,2.4-1.795,2.188-3.209
			c-0.19-1.27-1.281-2.301-2.301-2.975c-1.224-0.809-2.671-1.502-4.171-1.516c-1.719-0.016-3.606,0.945-5.153,1.602
			c-1.043,0.443-2.092,0.901-3.001,1.578c-0.909,0.676-1.678,1.599-1.961,2.696c-0.073,0.281-0.104,0.607,0.074,0.836
			c0.194,0.25,0.553,0.284,0.869,0.298C281.065,374.271,281.797,374.341,282.527,374.41z"/>
		<path style="fill:#13285E;" d="M303.306,335.148c-1.026,0.646-1.777,1.288-3.054,1.355c-1.1,0.058-2.321-0.362-3.224-0.989
			c-0.528-0.366-1.018,0.406-0.648,0.84c1.801,2.108,6.298,2.427,7.847-0.285C304.552,335.5,303.889,334.782,303.306,335.148z"/>
		<path style="fill:#6498B0;" d="M331.062,371.783c-3.786,7.474-8.436,14.266-14.389,20.189c-0.576,0.573,0.304,1.451,0.891,0.891
			c6.132-5.854,11.163-12.671,14.536-20.473C332.4,371.697,331.419,371.078,331.062,371.783z"/>
	</g>
	<g>
		<path style="opacity:0.13;fill:#110809;" d="M173.015,242.076c-4.556,1.156-10,3.81-9.131,7.729
			c0.831,3.748,6.595,4.742,11.142,4.908c32.119,1.171,64.345,2.341,96.375,0.033c3.766-0.271,7.668-0.628,10.912-2.253
			c3.244-1.625,5.636-4.887,4.639-7.941c-1.415-4.337-7.981-5.501-13.331-5.869C240.032,236.374,205.998,233.719,173.015,242.076z"
			/>
		<path id="XMLID_1053_" style="fill:#E0AC9B;" d="M195.804,106.691c-0.104-0.054-0.201-0.133-0.289-0.246
			c-0.472-0.61-0.334-1.935-0.171-2.623c0.062-0.262,0.187-0.558,0.449-0.621c0.101-0.024,0.207-0.008,0.311,0.007
			c1.976,0.306,3.966,0.505,5.935,0.83c0.704,0.116,3.152,0.507,2.397,1.73c-0.111,0.18-0.274,0.322-0.435,0.46
			c-0.963,0.831-1.682,0.257-2.832,0.204c-1.209-0.056-2.414,0.12-3.621,0.146C197.002,106.59,196.318,106.956,195.804,106.691z"/>
		<path style="fill:#111314;" d="M214.093,232.693c0.112-2.459-0.818-4.924-2.712-6.536c-1.428-1.216-3.938-2.445-5.847-1.804
			c-2.709,0.91-2.323,5.36-2.667,7.588c-0.445,2.884-2.051,5.573-4.381,7.33c-2.995,2.259-8.4,3.128-8.617,7.749
			c-0.057,1.226,0.568,2.518,1.679,3.039c0.521,0.244,1.106,0.311,1.681,0.334c2.547,0.102,5.018-0.466,7.372-1.371
			c3.418-1.314,6.837-2.628,10.255-3.942c1.901-0.73,2.581-2.462,2.71-4.383c0.154-2.309,0.309-4.618,0.463-6.927
			C214.052,233.412,214.076,233.053,214.093,232.693z"/>
		<path id="XMLID_1046_" style="fill:#E0AC9B;" d="M217.11,49.75c-0.101,1.338-0.673,7.299-0.663,8.487
			c0.018,2.082,3.803,11.406,5.867,11.366c2.263-0.044,5.682-9.07,5.688-11.218c0.008-2.923-0.53-8.709-0.531-8.747
			C225.996,42.025,217.524,44.266,217.11,49.75z"/>
		<rect x="200.526" y="107.654" style="fill:#1E3ABA;" width="42.495" height="22.73"/>
		
			<linearGradient id="XMLID_00000073714781517866692040000007715384336079223982_" gradientUnits="userSpaceOnUse" x1="222.2437" y1="39.6185" x2="222.2437" y2="57.3358">
			<stop  offset="4.000000e-07" style="stop-color:#BA7461"/>
			<stop  offset="1" style="stop-color:#E0AC9B"/>
		</linearGradient>
		<path id="XMLID_1045_" style="fill:url(#XMLID_00000073714781517866692040000007715384336079223982_);" d="M227.653,51.798
			c-0.1-1.254-0.182-2.146-0.182-2.161c-1.475-7.612-9.947-5.372-10.361,0.112c-0.04,0.53-0.154,1.787-0.276,3.185
			c0.125,0.185,0.26,0.341,0.413,0.459C220.112,55.81,224.502,55.242,227.653,51.798z"/>
		<path style="fill:#78579C;" d="M222.742,122.36c-0.033-1.993-0.243-3.922-1.497-5.935c-4.174-6.698-14.533-7.468-18.856-0.662
			c-1.657,2.608-2.405,5.682-2.947,8.724c-2.991,16.784-1.634,34.766-1.446,51.749c0.09,9.554,0.194,19.111,0.602,28.658
			c0.096,2.246,1.474,27.487,1.934,27.493c4.805,0.059,9.612-0.118,14.419-0.24c0.026-0.99-0.022-2.075,0.038-3.248
			c0.448-8.669,1.013-17.332,1.694-25.986c1.364-17.308,3.194-34.579,5.489-51.788c0.711-5.329,1.475-10.676,1.591-16.06
			C223.859,130.71,222.812,126.609,222.742,122.36z"/>
		<path style="fill:#111314;" d="M230.353,231.717c-0.037-0.649-0.074-1.298-0.111-1.947c-0.1-1.757-0.121-3.738,1.104-5.001
			c0.479-0.493,1.107-0.821,1.762-1.03c1.933-0.617,4.143-0.088,5.708,1.168c1.831,1.469,1.343,4.154,1.795,6.212
			c0.521,2.369,1.545,4.67,3.275,6.406c2.561,2.571,6.4,3.705,8.601,6.59c0.521,0.682,0.943,1.485,0.959,2.343
			c0.085,4.868-7.208,2.483-9.568,1.576c-2.918-1.122-5.836-2.243-8.754-3.365c-2.475-0.951-4.139-1.824-4.304-4.736
			C230.664,237.194,230.508,234.456,230.353,231.717z"/>
		<path style="fill:#69418C;" d="M221.768,126.016c0.233,17.825,0.895,35.645,1.986,53.438c0.864,14.103,1.997,28.189,3.398,42.248
			c0.322,3.232,0.183,7.109,1.02,10.28c4.507-0.525,9.084-0.67,13.603-0.433c0.53-0.043,1.061-0.078,1.592-0.106
			c2.537-31.617,3.722-63.307,3.215-95.029c-0.165-10.301-0.844-21.526-7.682-29.23c-4.048-4.561-10.148-1.119-13.54,2.411
			c-1.695,1.763-3.656,4.214-4.116,6.696c-0.282,1.518-0.138,3.273,0.07,5.035C221.504,122.942,221.749,124.565,221.768,126.016z"/>
		<path id="XMLID_1034_" style="fill:#FFFFFF;" d="M241.595,64.954c-0.311-1.375,0.876-4.344-1.356-6.138
			c-5.744-1.713-8.199-2.54-13.081-3.375c-0.027,2.256-2.958,5.058-4.317,6.23c-0.398,0.344-0.953,0.346-1.354,0.007
			c-1.388-1.172-4.43-3.997-4.457-6.259c-4.881,0.836-7.511,1.517-13.255,3.23c-2.232,1.794,0.072,4.94-0.239,6.315
			c-0.929,4.108-0.398,53.793-0.398,53.793h37.913C241.051,118.758,242.524,69.061,241.595,64.954z"/>
		<path id="XMLID_1033_" style="fill:#E0AC9B;" d="M228.295,34.049c-1.446-0.794-4.21,0.078-5.866,0
			c-1.656,0.078-4.213,0.05-5.54,1.029c-2.81,2.073-3.118,6.469-2.146,9.757c0.163,0.551,0.499,1.918,0.678,2.464
			c0.993,3.039,2.67,3.863,3.604,4.581c2.204,1.695,5.157,1.869,7.41,0.134c1.294-0.996,2.015-2.551,2.607-4.073
			c1.052-2.705,1.749-5.234,1.535-8.153C230.444,37.981,230.099,35.04,228.295,34.049z"/>
		<path style="fill:#13285E;" d="M246.628,125.235c0.003-0.007,0.006-0.014,0.009-0.021c1.839-6.604,2.854-13.403,3.228-20.242
			c0.293-5.35,0.338-10.762,0.211-16.141c-0.299-3.778-0.733-7.546-1.343-11.283c-0.442-2.705-0.879-5.465-1.62-8.116
			c-0.171-1.138-0.343-2.277-0.55-3.41c-0.294-1.608-0.487-3.349-1.651-4.477c-1.245-2.942-2.841-3.308-6.549-4.156
			c-2.814-0.642-5.743-1.417-8.612-1.665c-1.533,11.994-2.812,24.023-3.645,36.085c-0.136,1.975-0.261,3.95-0.372,5.926
			c-0.397,7.029-0.634,14.068-0.672,21.109c-0.008,1.485-0.115,3.047-0.128,4.541C232.123,124.551,239.364,125.174,246.628,125.235z
			"/>
		<path style="fill:#13285E;" d="M196.737,87.148c0.429,4.707,1.203,9.383,2.33,13.974c0.543,2.211,1.099,4.569,1.882,6.826
			c-0.004,0.066-0.01,0.133-0.014,0.2c-0.101-0.038-0.219-0.03-0.307,0.057c-2.181,2.132-2.241,4.906-2.125,7.823
			c0.005,0.118,0.043,0.211,0.094,0.292c-0.404,2.918-0.433,5.923-0.432,8.678c2.706,0.076,5.411,0.135,8.118,0.087
			c4.406-0.078,9.175,0.282,13.447-1.054c0.23-3.094,0.168-6.249,0.205-9.35c0.079-6.7,0.09-13.367-0.127-20.067
			c-0.216-6.651,0.033-13.4-0.659-20.021c-0.005-0.049-0.013-0.098-0.018-0.148c-0.155-1.067-0.328-2.135-0.536-3.206
			c-0.595-3.054-1.197-6.108-1.842-9.151c-0.341-1.232-0.713-2.456-1.111-3.671c-0.363-0.735-0.84-1.417-1.521-2.021
			c-0.041-0.036-0.088-0.054-0.135-0.065c-1.464-1.031-3.712,0.159-6.443,0.76c-1.995,0.439-5.281,0.686-6.98,1.921
			c-3.997,2.904-4.301,7.562-3.853,12.09c-0.016,0.225-0.033,0.447-0.051,0.665C196.24,76.888,196.271,82.03,196.737,87.148z"/>
		<path style="fill:#13285E;" d="M263.153,93.665c-0.014-0.033-0.035-0.06-0.049-0.092c-1.377-4.19-4.804-13.238-7.064-17.729
			c-3.609-7.174-6.566-14.878-12.163-16.865c-0.247-0.097-0.503-0.174-0.761-0.239c-0.03-0.007-0.057-0.02-0.087-0.027l-0.003,0.007
			c-1.124-0.268-2.332-0.244-3.509,0.146c-3.37,1.118-5.197,4.756-4.079,8.126c0.433,1.305,1.246,2.375,2.273,3.135l-0.023,0.049
			l16.582,28.095c0.038,0.06,0.068,0.125,0.108,0.183l0.02,0.034c0.001-0.001,0.003-0.003,0.005-0.004
			c1.325,1.888,3.821,2.676,6.039,1.755C263.005,99.172,264.219,96.229,263.153,93.665z"/>
		<g id="XMLID_992_">
			<path id="XMLID_994_" style="fill:#E0AC9B;" d="M195.97,103.245c1.212,0.446,2.217,1.356,3.175,2.239
				c2.722,2.509,5.719,4.608,9.039,6.277c0.708,0.356,0.03,1.725-0.68,1.368c-1.908-0.959-3.734-2.055-5.467-3.295
				c-0.127,0.185-0.257,0.369-0.39,0.55c2.117,2.168,4.526,3.93,7.245,5.262c0.712,0.349,0.035,1.718-0.68,1.368
				c-2.811-1.377-5.325-3.19-7.518-5.434c-0.123,0.143-0.246,0.286-0.372,0.426c1.783,2.262,3.961,4.041,6.514,5.322
				c0.708,0.356,0.031,1.725-0.68,1.368c-2.794-1.403-4.738-3.395-6.885-5.585c-0.581,0.44-0.54,0.725-0.205,1.389
				c0.66,1.305,1.916,2.526,3.346,2.94c0.501,0.145,1.102,0.088,1.066,0.783c-0.023,0.447-0.502,0.98-0.976,0.802
				c-1.248-0.47-2.173-0.937-3.124-1.91c-1.4-1.435-2.781-2.888-4.143-4.359c-0.681-0.736-1.357-1.476-2.028-2.22
				c-0.535-0.593-1.313-1.222-1.699-1.915c-0.524-0.939-0.303-2.118,0.088-3.12c0.597-1.526,2.269-2.849,3.982-2.383
				C195.712,103.156,195.842,103.198,195.97,103.245z"/>
		</g>
		<path style="fill:#E0AC9B;" d="M191.004,97.752c-2.082-2.227-4.066-4.542-5.966-6.926c-1.196-1.427-2.34-2.888-3.366-4.436
			c-0.434-0.602-0.886-1.19-1.309-1.8c-0.973-1.405-2.074-2.907-3.828-3.286c-1.611-0.348-3.323,0.161-4.581,1.198
			c-2.139,1.762-1.925,5.433-0.96,7.773c0.032,0.078,0.065,0.156,0.099,0.233c0.813,1.849,2.119,3.444,3.473,4.948
			c5.501,6.115,12.114,11.217,19.405,15.021c0.923-1.991,2.19-3.743,3.227-5.66c0.011-0.021,0.016-0.038,0.026-0.058
			C195.12,102.451,193.051,100.112,191.004,97.752z"/>
		<path style="fill:#13285E;" d="M207.623,56.288c-2.67,0.52-5.286,0.967-7.838,1.972c-4.113,1.62-7.44,4.287-10.897,6.966
			c-3.392,2.629-6.613,5.466-9.895,8.261c-3.156,2.687-12.776,9.036-8.891,14.268c0.419,0.564,1.578,0.258,1.258-0.531
			c-0.057-0.139-0.081-0.277-0.123-0.416c1.508,0.178,3.016,0.352,4.532,0.435c2.004,0.109,3.939,0.104,5.839,0.657
			c-0.148,0.203-0.296,0.406-0.43,0.617c-0.408,0.645,0.461,1.16,0.978,0.754c2.896-2.273,5.431-4.649,8.672-6.504
			c3.034-1.737,6.192-3.252,9.2-5.037c2.691-1.597,7.527-4.555,9.352-8.085c1.864-2.582,2.572-5.929,1.089-9.036
			c-0.829-1.736,4.525-4.71,5.523-2.478c0.152,0.34,0.579,0.112,0.616-0.167C217.103,54.267,209.488,55.924,207.623,56.288z"/>
		<path style="fill:#87B4C9;" d="M232.176,34.839c-0.008-1.096-0.135-2.185-0.447-3.249c-0.127-0.434-0.288-0.87-0.586-1.21
			c-0.558-0.636-1.472-0.804-2.316-0.861c-0.844-0.057-1.732-0.052-2.472-0.463c-0.739-0.41-1.205-1.169-1.812-1.757
			c-0.509-0.493-1.127-0.873-1.798-1.103c-0.452-0.155-0.941-0.243-1.41-0.149c-0.553,0.111-1.024,0.459-1.475,0.799
			c-2.817,2.121-6.424,4.25-6.424,8.267c-0.154,2.17,0.413,4.326,1.104,6.389c0.069,0.207,0.151,0.428,0.333,0.549
			c0.236,0.156,0.571,0.08,0.78-0.111c0.605-0.552,0.534-1.629,0.629-2.377c0.104-0.818,0.235-1.645,0.501-2.428
			c0.539-1.585,1.684-2.614,3.426-2.111c0.723,0.209,1.272,0.789,1.928,1.158c1.06,0.596,2.43,0.598,3.491,0.005
			c0.743-0.415,1.419-1.119,2.268-1.066c0.681,0.043,1.243,0.597,1.503,1.228c0.259,0.631,0.275,1.331,0.286,2.013
			c0.009,0.51-0.295,5.013,1.186,3.857c0.316-0.246,0.417-0.672,0.493-1.065C231.762,39.102,232.191,36.956,232.176,34.839z"/>
		<path id="XMLID_1024_" style="fill:#E0AC9B;" d="M215.054,42.429c0,0.801-0.364,1.451-0.813,1.451
			c-0.449,0-0.813-0.65-0.813-1.451c0-0.801,0.364-1.451,0.813-1.451C214.69,40.978,215.054,41.628,215.054,42.429z"/>
		<path id="XMLID_1023_" style="fill:#E0AC9B;" d="M231.416,42.429c0,0.801-0.364,1.451-0.813,1.451
			c-0.449,0-0.813-0.65-0.813-1.451c0-0.801,0.364-1.451,0.813-1.451C231.052,40.978,231.416,41.628,231.416,42.429z"/>
		<path style="fill:#110809;" d="M223.002,47.268c0.165-0.049,0.328-0.108,0.486-0.188c0.318-0.163,0.716-0.289,1.018-0.096
			c1.038,0.662-1.941,3.682-3.049,1.624c-0.057-0.105-0.098-0.221-0.098-0.341c-0.001-0.27,0.206-0.505,0.447-0.626
			C222.183,47.449,222.599,47.387,223.002,47.268z"/>
		<path style="fill:#87B4C9;" d="M260.48,90.594c-1.437-0.973-3.114-1.607-4.838-1.809c-0.849-0.1-1.992-0.17-2.779,0.24
			c-0.635,0.33-0.633,0.731-0.777,1.384c-0.431,1.957-0.63,3.966-1.106,5.911c-0.26,1.062-0.541,1.846-1.206,2.677
			c-0.666,0.833-1.039,1.851-1.021,2.923c0.023,1.381,0.659,2.715,1.619,3.707c2.812,2.906,7.52,2.453,10.648,0.328
			c3.539-2.404,4.702-7.653,2.882-11.456C263.142,92.913,261.935,91.579,260.48,90.594z"/>
		<g id="XMLID_47_">
			<g id="XMLID_702_">
				<g id="XMLID_17_">
					<path style="fill:#E0AC9B;" d="M258.971,92.915c0.442,0.632,0.861,1.283,1.125,2.005c0.515,1.408,0.393,2.998-0.134,4.401
						c-1.202,3.196-4.016,5.84-7.58,4.468c-4.034-1.553-7.036-6.622-8.832-10.281c-2.281-4.649-4.163-9.489-6.632-14.046
						c-0.826-1.525-1.716-3.019-2.707-4.443c-0.733-1.054-2.963-2.857-3.249-4.02c-0.253-1.028,0.638-1.713,1.11-2.507
						c0.502-0.844,0.915-1.74,1.23-2.67c0.102-0.301,0.198-0.614,0.397-0.863c0.198-0.249,0.529-0.422,0.836-0.336
						c0.149,0.042,0.275,0.139,0.394,0.238c2.33,1.93,3.24,5.043,4.87,7.592c1.923,3.007,4.564,5.201,6.971,7.779
						c3.231,3.461,6.864,6.514,10.157,9.914c0.691,0.713,1.198,1.577,1.774,2.388C258.792,92.66,258.882,92.787,258.971,92.915z"/>
				</g>
			</g>
		</g>
		<g id="XMLID_22_">
			<g id="XMLID_11_">
				<path style="fill:#110809;" d="M215.824,65.467h14.991c0.955,0,1.73-0.774,1.73-1.729V42.408c0-0.955-0.774-1.729-1.73-1.729
					h-14.991c-0.955,0-1.729,0.774-1.729,1.729v21.329C214.094,64.693,214.869,65.467,215.824,65.467z"/>
			</g>
		</g>
		<g id="XMLID_25_">
			<g id="XMLID_38_">
				<g id="XMLID_10_">
					<path style="fill:#E0AC9B;" d="M225.813,58.48c2.486,0.553,4.722,1.192,6.952,2.982c1.387,1.112,0.055,2.128-0.878,1.502
						c-2.002-1.346-4.183-2.283-6.537-2.807C224.259,59.914,224.721,58.237,225.813,58.48z"/>
				</g>
			</g>
			<g id="XMLID_95_">
				<g id="XMLID_9_">
					<path style="fill:#E0AC9B;" d="M224.007,60.174c2.845,0.72,5.501,1.973,8.137,3.235c1.009,0.483,0.128,1.983-0.878,1.501
						c-2.505-1.199-5.018-2.376-7.721-3.059C222.461,61.577,222.92,59.899,224.007,60.174z"/>
				</g>
			</g>
			<g id="XMLID_108_">
				<g id="XMLID_8_">
					<path style="fill:#E0AC9B;" d="M224.121,62.573c0.536-0.123,1.098,0.109,1.61,0.26c0.646,0.191,1.283,0.413,1.907,0.665
						c1.227,0.495,2.401,1.086,3.526,1.781c0.951,0.587,0.078,2.092-0.878,1.502c-0.938-0.579-1.911-1.102-2.928-1.529
						c-0.491-0.206-0.991-0.39-1.497-0.557c-0.417-0.137-0.852-0.388-1.279-0.456c-0.485-0.077-0.927-0.065-1.056-0.619
						C223.421,63.169,223.648,62.682,224.121,62.573z"/>
				</g>
			</g>
			<g id="XMLID_109_">
				<g id="XMLID_7_">
					<path style="fill:#E0AC9B;" d="M225.277,64.97c1.898,0.577,3.49,1.398,5.18,2.419c0.957,0.578,0.084,2.082-0.878,1.502
						c-1.559-0.941-3.014-1.712-4.764-2.244C223.747,66.322,224.202,64.643,225.277,64.97z"/>
				</g>
			</g>
		</g>
		<g id="XMLID_26_">
			<g id="XMLID_1_">
				<path style="fill:#E0AC9B;" d="M228.693,67.189c-0.037,0.059-0.072,0.119-0.104,0.181c-0.249,0.483,0.082,1.051,0.405,1.489
					c0.69,0.936,1.403,1.855,2.136,2.757c0.565,0.695,1.184,1.41,2.028,1.708c1.041,0.367,2.216,0.012,3.135-0.598
					c1.178-0.783,1.71-2.401,1.426-3.774c-0.187-0.903-0.646-1.723-1.113-2.518c-0.945-1.607-2.015-3.548-3.509-4.717
					c-1.292-1.011-1.932,1.009-2.358,1.942c-0.32,0.702-0.625,1.412-0.984,2.095C229.476,66.288,229.001,66.7,228.693,67.189z"/>
			</g>
		</g>
		<g id="XMLID_4_">
			<g id="XMLID_91_">
				<circle style="fill:#FFF5F5;" cx="223.303" cy="45.805" r="0.627"/>
			</g>
		</g>
		<g>
			<path style="fill:#87B4C9;" d="M214.044,22.937c-2.482,0.28-4.385,1.886-5.203,4.247c-0.224,0.646,0.722,0.987,1.066,0.449
				l0.08-0.125c0.044-0.068,0.064-0.155,0.067-0.241c0.646-1.801,2.228-3.216,4.072-3.731
				C214.445,23.447,214.397,22.897,214.044,22.937z"/>
			<path style="fill:#87B4C9;" d="M214.481,18.31c-1.707-0.94-4.9,1.392-6.141,2.469c-2.151,1.866-3.523,4.397-4.071,7.175
				c-0.165,0.84,0.937,1.107,1.254,0.346c0.078-0.188,0.157-0.376,0.235-0.564c0.06-0.145,0.019-0.266-0.068-0.353
				c0.487-2.162,1.6-4.091,3.238-5.632c0.94-0.885,2.011-1.589,3.197-2.095c0.802-0.342,1.784-0.373,2.399-1.007
				C214.619,18.551,214.605,18.378,214.481,18.31z"/>
			<path style="fill:#87B4C9;" d="M213.917,12c-4.044,0.045-8.173,3.651-10.491,6.68c-1.338,1.748-2.392,3.723-3.059,5.823
				c-0.321,1.009-1.374,3.609-0.395,4.514c0.3,0.278,0.681,0.184,0.911-0.117l0.103-0.136c0.128-0.167,0.069-0.464-0.077-0.601
				c-0.013-0.012-0.027-0.025-0.04-0.037c0.251-0.232,0.328-0.62,0.181-1.21c0.088-0.469,0.196-0.934,0.323-1.394
				c0.24-0.866,0.546-1.717,0.917-2.535c0.767-1.689,1.806-3.267,3.044-4.647c1.239-1.382,2.685-2.59,4.277-3.544
				c1.434-0.859,3.048-1.302,4.489-2.124C214.408,12.495,214.274,11.996,213.917,12z"/>
		</g>
		<g>
			<path style="fill:#87C98B;" d="M289.137,221.544c-1.19-0.132-2.299,0.583-3.237,1.327c-2.847,2.259-5.229,5.101-6.957,8.298
				c3.118-6.736,6.294-13.708,6.503-21.128c0.024-0.843-0.013-1.754-0.53-2.42c-1.264-1.628-3.893-0.423-5.312,1.072
				c-2.854,3.004-4.753,6.901-5.361,10.999c0.34-9.361-0.113-18.75-1.352-28.034c-0.329-2.465-1.364-5.512-4.542-4.074
				c-2.306,1.044-3.502,3.614-4.11,6.07c-1.044,4.215-0.923,8.619-0.797,12.96c0.094,3.193,0.43,6.499,0.25,9.68
				c-1.31-1.035-1.874-3.628-3.649-4.068c-1.341-0.333-2.845,1.159-3.312,2.238c-0.587,1.356-0.499,2.901-0.311,4.367
				c1.098,8.564,5.697,20.149,11.719,27.152c1.532,0.074,3.064,0.143,4.594,0.224c1.384-0.085,2.772-0.133,4.156-0.134
				c1.373-1.361,2.637-2.951,3.672-4.052c3.565-3.793,6.755-7.941,9.5-12.365c0.862-1.39,1.705-2.888,1.738-4.523
				C291.831,223.498,290.762,221.725,289.137,221.544z"/>
			<path style="fill:#73AB76;" d="M268.656,239.68c1.56,2.203,3.179,4.364,4.844,6.489c2.519-0.133,5.046-0.155,7.53,0.082
				c2.133-2.17,3.907-4.692,5.331-7.385c0.483-0.913,0.934-1.871,1.035-2.899c0.101-1.028-0.209-2.15-1.019-2.79
				c-3.042-2.406-6.157,3.799-7.741,5.242c-0.317-1.168,0.716-2.766,1.136-3.849c1.559-4.02,3.136-8.436,1.813-12.54
				c-0.302-0.936-0.879-1.929-1.844-2.117c-2.269-0.442-4.27,3.677-4.913,5.309c-1.118,2.835-1.462,5.982-0.915,8.985
				c-1.094-1.856-5.547-8.707-8.138-5.739c-0.678,0.776-0.847,1.878-0.799,2.907c0.077,1.662,0.63,3.224,1.403,4.706
				C267.03,237.334,267.842,238.53,268.656,239.68z"/>
		</g>
		<path style="fill:#87B4C9;" d="M169.176,89.593c0.015,0.294,0.257,0.525,0.552,0.525c2.074-0.003,4.149-0.067,6.231-0.017
			c2.889,0.07,5.749,0.303,8.628,0.317c0.269,0.001,0.504-0.191,0.555-0.455c0.194-1.009,0.352-2.025,0.505-3.043
			c0.044-0.293-0.151-0.569-0.442-0.626c-2.442-0.479-4.885-0.955-7.328-1.43c-2.823-0.549-5.735-1.326-8.619-1.596
			c-0.345-0.032-0.64,0.267-0.601,0.612c0.117,1.03,0.305,2.063,0.367,3.026C169.081,87.801,169.13,88.697,169.176,89.593z"/>
	</g>
	<g>
		<path style="opacity:0.13;fill:#110809;" d="M121.159,422.66c-0.2-0.055-0.404-0.096-0.6-0.128
			c-5.795-0.951-11.449-0.61-17.235-0.133c-1.9,0.157-3.823,0.4-5.562,1.15c-2.07,0.893,2.266,2.814,3.023,2.947
			c6.305,1.108,13.33,0.156,19.542-1.087c0.523-0.105,1.06-0.221,1.497-0.502c0.437-0.281,0.754-0.769,0.646-1.244
			C122.347,423.123,121.775,422.828,121.159,422.66z"/>
		<path style="fill:#87C98B;" d="M123.732,410.132c0.052-0.213,0.086-0.428,0.095-0.647c0.138-3.44-4.759-2.451-5.969-0.19
			c2.241-4.187,4.052-8.587,5.393-13.102c0.315-1.063,1.673-6.055,0.124-6.525c-0.217-0.066-0.458-0.003-0.678,0.077
			c-2.16,0.779-3.495,2.994-4.429,5.106c-1.562,3.53-2.569,7.279-2.969,11.057c0.522-7.277-0.048-17.442-4.149-23.502
			c-1.027-1.518-3.159-1.844-4.308-0.061c-1.441,2.236-2.027,4.903-2.098,7.495c-0.07,2.592,0.345,5.141,0.759,7.672
			c-0.82-2.219-1.716-4.545-3.572-5.972c-2.196-1.688-4.448-0.258-4.943,2.4c-0.253,1.355-0.004,2.722,0.315,4.029
			c1.556,6.365,4.442,12.435,6.945,18.414c-0.671-0.715-1.341-1.43-2.012-2.144c-0.354-0.377-0.715-0.76-1.173-1.003
			c-0.458-0.243-1.038-0.327-1.527-0.089c-0.624,0.304-0.942,1.061-0.912,1.739c0.03,0.677,0.34,1.291,0.667,1.868
			c1.769,3.12,4.306,5.407,6.871,7.807c0.029,0.027,0.055,0.047,0.083,0.072c2.62-0.155,5.245-0.535,7.87-0.842
			c0.463-0.054,1.768-1.861,2.127-2.257c0.873-0.963,1.673-2.011,2.451-3.049c1.564-2.087,2.986-4.277,4.25-6.55
			C123.263,411.357,123.579,410.757,123.732,410.132z"/>
	</g>
	<path style="fill:none;stroke:#87B4C9;stroke-miterlimit:10;stroke-dasharray:12;" d="M159.216,94.038
		c-20.068,14.512-36.623,33.73-48.307,55.547c-11.572,21.608-18.396,45.827-19.124,70.361c-0.409,13.781,1.121,27.617,4.678,40.943"
		/>
	<path style="fill:none;stroke:#87B4C9;stroke-miterlimit:10;stroke-dasharray:12;" d="M395.225,144.728
		c-7.527-22.207-20.785-42.407-38.078-58.058c-16.073-14.547-35.599-24.998-56.357-30.399c-12.431-3.235-25.279-4.636-38.053-4.11"
		/>
	<path style="fill:none;stroke:#87B4C9;stroke-miterlimit:10;stroke-dasharray:12;" d="M330.306,329.181
		c44.953-25.853,68.906-75.978,72.389-128.058"/>
	<path style="fill:none;stroke:#87B4C9;stroke-miterlimit:10;stroke-dasharray:12;" d="M127.216,295.861
		c10.615,15.912,24.668,29.638,41.041,40.006c16.891,10.696,36.126,17.699,56.033,20.508c10.646,1.502,21.454,1.816,32.149,0.905"/>
</g>
<g id="DESIGNED_BY_FREEPIK">
	<g id="XMLID_365_">
		<g id="XMLID_319_">
			<g id="XMLID_338_">
				<path id="XMLID_346_" style="fill:#A5B7C6;" d="M260.104,465.465c-0.433,0.443-0.804,0.932-1.108,1.453l-0.465-0.241
					c-0.067-0.297-0.35-0.502-0.659-0.466c-0.331,0.039-0.567,0.339-0.529,0.67c0.039,0.331,0.339,0.567,0.67,0.528
					c0.065-0.007,0.127-0.025,0.184-0.052l0.451,0.234c-0.251,0.554-0.433,1.139-0.539,1.743l0.747,0.132
					c0.229-1.306,0.85-2.507,1.792-3.473L260.104,465.465z"/>
				<path id="XMLID_345_" style="fill:#A5B7C6;" d="M265.591,463.163c-0.171,0-0.341,0.006-0.509,0.017l-0.074-0.626
					c0.188-0.149,0.296-0.389,0.266-0.645c-0.046-0.393-0.402-0.674-0.795-0.628c-0.394,0.046-0.675,0.402-0.628,0.796
					c0.03,0.254,0.189,0.461,0.404,0.563l0.073,0.624c-0.714,0.116-1.402,0.332-2.06,0.645l0.327,0.685
					c0.935-0.447,1.941-0.674,2.995-0.674c0.497,0,0.993,0.053,1.476,0.158l0.16-0.741
					C266.692,463.222,266.142,463.163,265.591,463.163z"/>
				<path id="XMLID_344_" style="fill:#A5B7C6;" d="M272.194,465.71c0.331-0.04,0.566-0.341,0.525-0.672
					c-0.04-0.331-0.341-0.566-0.672-0.525c-0.31,0.038-0.535,0.304-0.53,0.608l-0.416,0.363c-0.418-0.43-0.89-0.813-1.407-1.14
					l-0.404,0.642c1.135,0.715,2.021,1.727,2.564,2.925l0.69-0.313c-0.251-0.554-0.567-1.071-0.942-1.545l0.402-0.351
					C272.065,465.715,272.128,465.719,272.194,465.71z"/>
				<path id="XMLID_343_" style="fill:#A5B7C6;" d="M265.044,473.371c-0.386,0.023-0.775,0.035-1.157,0.035
					c-0.88,0-1.733-0.061-2.479-0.18c-0.391-0.061-0.846-0.154-1.271-0.292c1.047,1.861,3.069,3.125,5.389,3.125
					c2.855,0,5.263-1.916,5.949-4.503c-0.682,0.449-1.505,0.825-2.458,1.122C267.838,473.047,266.463,473.286,265.044,473.371z"/>
				<path id="XMLID_339_" style="fill:#A5B7C6;" d="M265.591,464.68c-3.351,0-6.079,2.666-6.079,5.943
					c0,0.425,0.046,0.849,0.137,1.261c0.674,0.483,2.706,0.891,5.348,0.731c2.88-0.174,5.297-0.958,6.672-2.159
					c-0.005-0.194-0.02-0.39-0.045-0.581C271.244,466.913,268.65,464.68,265.591,464.68z M263.432,471.194
					c-1.02,0-1.85-0.83-1.85-1.85c0-1.021,0.83-1.85,1.85-1.85c1.02,0,1.85,0.83,1.85,1.85
					C265.282,470.364,264.452,471.194,263.432,471.194z M268.169,470.286c-0.75,0-1.36-0.61-1.36-1.36s0.61-1.36,1.36-1.36
					s1.36,0.61,1.36,1.36S268.919,470.286,268.169,470.286z"/>
			</g>
			<path id="XMLID_336_" style="fill:#A5B7C6;" d="M281.595,466.547c-0.295-0.116-0.806-0.31-1.383-0.238
				c-0.551,0.069-0.844,0.341-0.844,1.007v0.866h2.229v1.717h-2.229v5.455h-1.932v-5.455h-1.339v-1.717h1.339v-0.889
				c0-1.68,0.896-2.782,2.568-2.782c0.643,0,1.157,0.121,1.59,0.308V466.547z"/>
			<path id="XMLID_334_" style="fill:#A5B7C6;" d="M286.297,469.878c-0.177-0.029-0.357-0.046-0.525-0.046
				c-0.896,0-1.51,0.548-1.51,1.613v3.908h-1.933v-7.172h1.873v0.784c0.451-0.673,1.14-0.977,2.021-0.977
				c0.414,0,0.848,0.128,1.095,0.337L286.297,469.878z"/>
			<path id="XMLID_331_" style="fill:#A5B7C6;" d="M293.965,471.757c0,0.222-0.016,0.488-0.037,0.651h-5.085
				c0.207,1.036,0.933,1.487,1.843,1.487c0.622,0,1.295-0.252,1.813-0.689l1.133,1.243c-0.814,0.748-1.851,1.089-3.057,1.089
				c-2.198,0-3.724-1.496-3.724-3.753c0-2.258,1.48-3.797,3.627-3.797C292.543,467.989,293.958,469.522,293.965,471.757z
				 M288.851,471.091h3.175c-0.178-0.918-0.732-1.436-1.561-1.436C289.554,469.654,289.021,470.202,288.851,471.091z"/>
			<path id="XMLID_328_" style="fill:#A5B7C6;" d="M301.619,471.757c0,0.222-0.016,0.488-0.037,0.651h-5.085
				c0.207,1.036,0.933,1.487,1.843,1.487c0.622,0,1.296-0.252,1.814-0.689l1.133,1.243c-0.815,0.748-1.851,1.089-3.058,1.089
				c-2.198,0-3.723-1.496-3.723-3.753c0-2.258,1.48-3.797,3.627-3.797C300.197,467.989,301.611,469.522,301.619,471.757z
				 M296.504,471.091h3.175c-0.178-0.918-0.733-1.436-1.561-1.436C297.208,469.654,296.674,470.202,296.504,471.091z"/>
			<path id="XMLID_325_" style="fill:#A5B7C6;" d="M309.964,471.764c0,2.154-1.495,3.775-3.472,3.775
				c-0.962,0-1.644-0.378-2.109-0.933v3.708h-1.925v-10.133h1.888v0.792c0.467-0.585,1.154-0.984,2.139-0.984
				C308.469,467.989,309.964,469.61,309.964,471.764z M304.287,471.764c0,1.133,0.748,1.977,1.844,1.977
				c1.14,0,1.85-0.881,1.85-1.977c0-1.095-0.71-1.976-1.85-1.976C305.035,469.788,304.287,470.632,304.287,471.764z"/>
			<path id="XMLID_322_" style="fill:#A5B7C6;" d="M313.068,465.835c0,0.696-0.541,1.23-1.236,1.23c-0.696,0-1.229-0.533-1.229-1.23
				c0-0.695,0.532-1.243,1.229-1.243C312.527,464.592,313.068,465.14,313.068,465.835z M312.808,475.353h-1.932v-7.172h1.932
				V475.353z"/>
			<path id="XMLID_320_" style="fill:#A5B7C6;" d="M316.032,470.735l2.702-2.554h2.368l-3.478,3.375l3.501,3.797h-2.376
				l-2.717-2.901v2.901H314.1v-10.658h1.932V470.735z"/>
		</g>
		<g id="XMLID_121_">
			<path id="XMLID_266_" style="fill:#A5B7C6;" d="M184.412,475.289v-1.055c-0.527,0.718-1.391,1.23-2.387,1.23
				c-1.846,0-3.149-1.406-3.149-3.706c0-2.256,1.289-3.721,3.149-3.721c0.952,0,1.816,0.469,2.387,1.245v-3.765h1.099v9.771H184.412
				z M184.412,473.37v-3.208c-0.395-0.615-1.245-1.143-2.124-1.143c-1.42,0-2.27,1.172-2.27,2.739c0,1.567,0.85,2.725,2.27,2.725
				C183.167,474.483,184.017,473.985,184.412,473.37z"/>
			<path id="XMLID_263_" style="fill:#A5B7C6;" d="M186.932,471.744c0-2.051,1.465-3.706,3.486-3.706
				c2.139,0,3.398,1.67,3.398,3.794v0.278h-5.727c0.088,1.333,1.025,2.446,2.549,2.446c0.806,0,1.626-0.322,2.182-0.894l0.527,0.718
				c-0.703,0.703-1.655,1.084-2.812,1.084C188.44,475.465,186.932,473.956,186.932,471.744z M190.403,468.946
				c-1.509,0-2.256,1.274-2.314,2.358h4.644C192.718,470.25,192.015,468.946,190.403,468.946z"/>
			<path id="XMLID_261_" style="fill:#A5B7C6;" d="M194.607,474.352l0.571-0.791c0.469,0.542,1.362,1.011,2.329,1.011
				c1.084,0,1.67-0.513,1.67-1.216c0-1.714-4.38-0.659-4.38-3.281c0-1.099,0.952-2.036,2.636-2.036c1.202,0,2.051,0.454,2.623,1.025
				l-0.513,0.762c-0.424-0.513-1.201-0.893-2.109-0.893c-0.966,0-1.567,0.483-1.567,1.113c0,1.553,4.379,0.527,4.379,3.281
				c0,1.186-0.952,2.139-2.783,2.139C196.306,475.465,195.325,475.113,194.607,474.352z"/>
			<path id="XMLID_258_" style="fill:#A5B7C6;" d="M201.477,466.471c0-0.41,0.337-0.747,0.732-0.747c0.41,0,0.747,0.337,0.747,0.747
				c0,0.41-0.337,0.732-0.747,0.732C201.814,467.203,201.477,466.881,201.477,466.471z M201.667,475.289v-7.075h1.099v7.075H201.667
				z"/>
			<path id="XMLID_255_" style="fill:#A5B7C6;" d="M204.582,477.105l0.556-0.82c0.586,0.703,1.289,0.967,2.3,0.967
				c1.172,0,2.27-0.571,2.27-2.124v-1.011c-0.513,0.718-1.377,1.26-2.373,1.26c-1.846,0-3.149-1.377-3.149-3.662
				c0-2.271,1.289-3.677,3.149-3.677c0.952,0,1.802,0.469,2.373,1.245v-1.069h1.099v6.87c0,2.344-1.641,3.076-3.369,3.076
				C206.237,478.16,205.416,477.925,204.582,477.105z M209.708,473.253v-3.091c-0.381-0.615-1.23-1.143-2.109-1.143
				c-1.421,0-2.27,1.128-2.27,2.695c0,1.553,0.849,2.695,2.27,2.695C208.478,474.41,209.328,473.868,209.708,473.253z"/>
			<path id="XMLID_253_" style="fill:#A5B7C6;" d="M217.413,475.289v-4.629c0-1.245-0.63-1.641-1.582-1.641
				c-0.864,0-1.685,0.527-2.094,1.099v5.171h-1.099v-7.075h1.099v1.025c0.497-0.586,1.464-1.201,2.519-1.201
				c1.48,0,2.256,0.747,2.256,2.285v4.966H217.413z"/>
			<path id="XMLID_250_" style="fill:#A5B7C6;" d="M219.932,471.744c0-2.051,1.465-3.706,3.486-3.706
				c2.139,0,3.398,1.67,3.398,3.794v0.278h-5.727c0.088,1.333,1.025,2.446,2.548,2.446c0.806,0,1.626-0.322,2.183-0.894l0.527,0.718
				c-0.703,0.703-1.655,1.084-2.813,1.084C221.441,475.465,219.932,473.956,219.932,471.744z M223.404,468.946
				c-1.509,0-2.256,1.274-2.314,2.358h4.643C225.718,470.25,225.015,468.946,223.404,468.946z"/>
			<path id="XMLID_129_" style="fill:#A5B7C6;" d="M233.35,475.289v-1.055c-0.527,0.718-1.392,1.23-2.388,1.23
				c-1.845,0-3.149-1.406-3.149-3.706c0-2.256,1.289-3.721,3.149-3.721c0.952,0,1.817,0.469,2.388,1.245v-3.765h1.098v9.771H233.35z
				 M233.35,473.37v-3.208c-0.396-0.615-1.245-1.143-2.124-1.143c-1.421,0-2.27,1.172-2.27,2.739c0,1.567,0.85,2.725,2.27,2.725
				C232.105,474.483,232.954,473.985,233.35,473.37z"/>
			<path id="XMLID_122_" style="fill:#A5B7C6;" d="M239.692,475.289v-9.771h1.099v3.765c0.571-0.776,1.421-1.245,2.388-1.245
				c1.845,0,3.149,1.465,3.149,3.721c0,2.3-1.304,3.706-3.149,3.706c-0.996,0-1.86-0.513-2.388-1.23v1.055H239.692z M242.9,474.483
				c1.436,0,2.285-1.157,2.285-2.725c0-1.567-0.85-2.739-2.285-2.739c-0.864,0-1.729,0.527-2.109,1.143v3.208
				C241.171,473.985,242.036,474.483,242.9,474.483z"/>
			<path id="XMLID_125_" style="fill:#A5B7C6;" d="M247.528,477.061c0.161,0.073,0.425,0.117,0.6,0.117
				c0.483,0,0.806-0.161,1.055-0.747l0.469-1.069l-2.959-7.148h1.187l2.358,5.801l2.344-5.801h1.2l-3.544,8.511
				c-0.425,1.024-1.143,1.421-2.08,1.436c-0.234,0-0.6-0.044-0.806-0.103L247.528,477.061z"/>
		</g>
	</g>
</g>
</svg>
