<svg width="18" height="14" viewBox="0 0 18 14" fill="none" xmlns="http://www.w3.org/2000/svg">
<path d="M7.94531 -1.19209e-06V3.75C7.94531 4.85677 7.73698 6.02214 7.32031 7.24609C6.91667 8.45703 6.34375 9.6224 5.60156 10.7422C4.85938 11.862 3.98698 12.8255 2.98438 13.6328L0.09375 11.5625C0.861979 10.4427 1.52604 9.2513 2.08594 7.98828C2.65885 6.72526 2.94531 5.33203 2.94531 3.80859V-1.19209e-06H7.94531ZM17.8867 -1.19209e-06V3.75C17.8867 4.85677 17.6784 6.02214 17.2617 7.24609C16.8581 8.45703 16.2852 9.6224 15.543 10.7422C14.8008 11.862 13.9284 12.8255 12.9258 13.6328L10.0352 11.5625C10.8034 10.4427 11.4674 9.2513 12.0273 7.98828C12.6003 6.72526 12.8867 5.33203 12.8867 3.80859V-1.19209e-06H17.8867Z" fill="#2AB691"/>
</svg>
