<svg width="19" height="15" viewBox="0 0 19 15" fill="none" xmlns="http://www.w3.org/2000/svg">
<path d="M0.773438 14.5V10.75C0.773438 9.64323 0.981771 8.47786 1.39844 7.2539C1.8151 6.02995 2.39453 4.85807 3.13672 3.73828C3.87891 2.61849 4.7513 1.66146 5.75391 0.867188L8.64453 2.9375C7.85026 4.09635 7.17318 5.30729 6.61328 6.57031C6.05339 7.83333 5.77344 9.20703 5.77344 10.6914V14.5H0.773438ZM10.7344 14.5V10.75C10.7344 9.64323 10.9427 8.47786 11.3594 7.2539C11.776 6.02995 12.3555 4.85807 13.0977 3.73828C13.8398 2.61849 14.7122 1.66146 15.7148 0.867188L18.6055 2.9375C17.8112 4.09635 17.1341 5.30729 16.5742 6.57031C16.0143 7.83333 15.7344 9.20703 15.7344 10.6914V14.5H10.7344Z" fill="#2AB691"/>
</svg>
